/* XPM */
static char * chest_or_xpm[] = {
"48 48 861 2",
"  	c #509B66",
". 	c #4F9C66",
"+ 	c #5B815D",
"@ 	c #4F7751",
"# 	c #618E67",
"$ 	c #5D976A",
"% 	c #4E7751",
"& 	c #529564",
"* 	c #539866",
"= 	c #4C8C5C",
"- 	c #4C8B5C",
"; 	c #695756",
"> 	c #523138",
", 	c #707464",
"' 	c #519A66",
") 	c #539263",
"! 	c #607E5F",
"~ 	c #56825D",
"{ 	c #4D8B5C",
"] 	c #4F9060",
"^ 	c #529C67",
"/ 	c #4F7A53",
"( 	c #450208",
"_ 	c #43030A",
": 	c #686471",
"< 	c #6A6C7B",
"[ 	c #5D5461",
"} 	c #450209",
"| 	c #440208",
"1 	c #4F8B5E",
"2 	c #519B66",
"3 	c #519B67",
"4 	c #519C67",
"5 	c #504A39",
"6 	c #430308",
"7 	c #543C44",
"8 	c #6B6C7B",
"9 	c #6B6C7A",
"0 	c #4F3037",
"a 	c #420003",
"b 	c #474731",
"c 	c #67715C",
"d 	c #50312F",
"e 	c #4F2C33",
"f 	c #6A6775",
"g 	c #9394A1",
"h 	c #7F818F",
"i 	c #6A6979",
"j 	c #6C616E",
"k 	c #440308",
"l 	c #553A36",
"m 	c #58423C",
"n 	c #59423C",
"o 	c #56403A",
"p 	c #481719",
"q 	c #61505B",
"r 	c #7C7B87",
"s 	c #999CA8",
"t 	c #6B6775",
"u 	c #5A4750",
"v 	c #481A19",
"w 	c #57413B",
"x 	c #6BA477",
"y 	c #509C66",
"z 	c #4E6347",
"A 	c #AB6B35",
"B 	c #B25D0E",
"C 	c #94583C",
"D 	c #8B8C9A",
"E 	c #999BA8",
"F 	c #818391",
"G 	c #787A88",
"H 	c #8D8890",
"I 	c #93470B",
"J 	c #BA750F",
"K 	c #C27E0E",
"L 	c #C27E0D",
"M 	c #C17E0D",
"N 	c #C17E0C",
"O 	c #9E540E",
"P 	c #907775",
"Q 	c #91939F",
"R 	c #9C9EAA",
"S 	c #858794",
"T 	c #906F69",
"U 	c #A14F0B",
"V 	c #C26D17",
"W 	c #626850",
"X 	c #578F63",
"Y 	c #421513",
"Z 	c #CE8C41",
"` 	c #DB8F3B",
" .	c #B77751",
"..	c #C7C8CE",
"+.	c #A2A3AF",
"@.	c #8C8E9B",
"#.	c #A0999F",
"$.	c #B25905",
"%.	c #E6A844",
"&.	c #F3B64D",
"*.	c #F3B64C",
"=.	c #F0AC34",
"-.	c #EE9F03",
";.	c #ED9F01",
">.	c #ED9F02",
",.	c #C06A08",
"'.	c #BFA69D",
").	c #BBBCC4",
"!.	c #818390",
"~.	c #9799A5",
"{.	c #AA8073",
"].	c #C36E20",
"^.	c #F2AB53",
"/.	c #480305",
"(.	c #59865E",
"_.	c #421512",
":.	c #D0A665",
"<.	c #DDA55B",
"[.	c #C28765",
"}.	c #F8F7F8",
"|.	c #ACADB8",
"1.	c #A3A3AF",
"2.	c #A4A4B0",
"3.	c #B15904",
"4.	c #E8B86C",
"5.	c #F6C879",
"6.	c #F6C87A",
"7.	c #F7C878",
"8.	c #F6C878",
"9.	c #EEB557",
"0.	c #E89807",
"a.	c #E89806",
"b.	c #E89805",
"c.	c #BF6809",
"d.	c #DFCABF",
"e.	c #E0E0E4",
"f.	c #A7A9B3",
"g.	c #9EA0AC",
"h.	c #AA8175",
"i.	c #C37835",
"j.	c #F5C97C",
"k.	c #460204",
"l.	c #59865D",
"m.	c #411513",
"n.	c #994B08",
"o.	c #B35903",
"p.	c #C18763",
"q.	c #F8F7F9",
"r.	c #ACADB9",
"s.	c #DADBDE",
"t.	c #DBDADF",
"u.	c #A099A0",
"v.	c #B25904",
"w.	c #B35A02",
"x.	c #B45B04",
"y.	c #B35B04",
"z.	c #B35902",
"A.	c #B45903",
"B.	c #B25901",
"C.	c #B35901",
"D.	c #B25903",
"E.	c #DFE0E4",
"F.	c #9D9FAA",
"G.	c #F8F8F9",
"H.	c #B4B6BE",
"I.	c #AB8175",
"J.	c #B55701",
"K.	c #B35704",
"L.	c #480307",
"M.	c #58855D",
"N.	c #64966D",
"O.	c #53483B",
"P.	c #44060B",
"Q.	c #CBA161",
"R.	c #D9A25A",
"S.	c #F9F8F9",
"T.	c #EBECEE",
"U.	c #F3F3F6",
"V.	c #F3F3F4",
"W.	c #E7E3DE",
"X.	c #B15A05",
"Y.	c #E3B467",
"Z.	c #F1C273",
"`.	c #F1C374",
" +	c #F0C274",
".+	c #E8B158",
"++	c #E49405",
"@+	c #E49506",
"#+	c #BD6708",
"$+	c #F3F3F5",
"%+	c #EAEAED",
"&+	c #F8F8FA",
"*+	c #ECECEE",
"=+	c #D1B3A6",
"-+	c #C17633",
";+	c #F0C176",
">+	c #440305",
",+	c #4F3C32",
"'+	c #577455",
")+	c #56885E",
"!+	c #636F5E",
"~+	c #857781",
"{+	c #43050C",
"]+	c #CB8E43",
"^+	c #D9903E",
"/+	c #F9F7F9",
"(+	c #F4F0EA",
"_+	c #E5A847",
":+	c #F0B550",
"<+	c #F0B650",
"[+	c #EEAE3C",
"}+	c #BF6A08",
"|+	c #D8BCAE",
"1+	c #C36F23",
"2+	c #EFAA54",
"3+	c #460205",
"4+	c #75636B",
"5+	c #73716E",
"6+	c #567757",
"7+	c #4F9C67",
"8+	c #597454",
"9+	c #6B595E",
"0+	c #BDBCC5",
"a+	c #420910",
"b+	c #CA700D",
"c+	c #D97607",
"d+	c #F9F8FA",
"e+	c #B15A06",
"f+	c #E39405",
"g+	c #C06A09",
"h+	c #DFCABE",
"i+	c #D8BCAD",
"j+	c #C36302",
"k+	c #ED860B",
"l+	c #490305",
"m+	c #A19CA4",
"n+	c #9B949A",
"o+	c #5B4D43",
"p+	c #587454",
"q+	c #867779",
"r+	c #F9F6F9",
"s+	c #440D12",
"t+	c #D97606",
"u+	c #C18764",
"v+	c #E49306",
"w+	c #EE9E02",
"x+	c #D3CDD0",
"y+	c #C8C2C4",
"z+	c #5F4950",
"A+	c #9D9CA8",
"B+	c #42070F",
"C+	c #CB700C",
"D+	c #D87606",
"E+	c #B06A3D",
"F+	c #9E9EA9",
"G+	c #EEEEF1",
"H+	c #C8C9CE",
"I+	c #C6C6CE",
"J+	c #B15905",
"K+	c #E47F03",
"L+	c #ED8601",
"M+	c #ED8701",
"N+	c #EE8602",
"O+	c #BF6406",
"P+	c #A78680",
"Q+	c #BFC1C8",
"R+	c #9B9DA9",
"S+	c #E9E9EA",
"T+	c #D8BCAF",
"U+	c #ED860A",
"V+	c #89828C",
"W+	c #837A84",
"X+	c #587453",
"Y+	c #9D9DAA",
"Z+	c #42080F",
"`+	c #B0693F",
" @	c #9C9DA9",
".@	c #B1B3BC",
"+@	c #A6A8B3",
"@@	c #C6C6CF",
"#@	c #F5F0EA",
"$@	c #B05A05",
"%@	c #E47E03",
"&@	c #EE8601",
"*@	c #EF8602",
"=@	c #BF6407",
"-@	c #A7867F",
";@	c #A4A5B1",
">@	c #B5B6C0",
",@	c #9B9DAA",
"'@	c #C36303",
")@	c #EC860B",
"!@	c #89828D",
"~@	c #837B85",
"{@	c #56875E",
"]@	c #646F5D",
"^@	c #81737D",
"/@	c #43050B",
"(@	c #9B5217",
"_@	c #A65616",
":@	c #905B47",
"<@	c #9C9DAA",
"[@	c #B4B6BF",
"}@	c #D3CECF",
"|@	c #8B4111",
"1@	c #AE5D14",
"2@	c #B56114",
"3@	c #B56113",
"4@	c #B56214",
"5@	c #B66215",
"6@	c #B66116",
"7@	c #954912",
"8@	c #978182",
"9@	c #CACBD1",
"0@	c #B59F99",
"a@	c #984811",
"b@	c #B56219",
"c@	c #460306",
"d@	c #726067",
"e@	c #726F6C",
"f@	c #587756",
"g@	c #63966D",
"h@	c #4A4333",
"i@	c #713311",
"j@	c #763711",
"k@	c #77504C",
"l@	c #9C9CAB",
"m@	c #9A97A1",
"n@	c #66280E",
"o@	c #7A3C11",
"p@	c #7F3F11",
"q@	c #7F3F10",
"r@	c #7F4012",
"s@	c #7F4113",
"t@	c #7E4013",
"u@	c #7E3F11",
"v@	c #6C2D0E",
"w@	c #8E7E85",
"x@	c #847277",
"y@	c #6D2E10",
"z@	c #7E4014",
"A@	c #460207",
"B@	c #49382C",
"C@	c #517252",
"D@	c #CA6F10",
"E@	c #D77609",
"F@	c #B06940",
"G@	c #9C9CAA",
"H@	c #9B9DAB",
"I@	c #B05906",
"J@	c #E47F05",
"K@	c #EF8603",
"L@	c #EF8604",
"M@	c #F08606",
"N@	c #F08605",
"O@	c #F08705",
"P@	c #F08706",
"Q@	c #EF8605",
"R@	c #EE8605",
"S@	c #EE8604",
"T@	c #BF6307",
"U@	c #A68680",
"V@	c #A77F73",
"W@	c #C26306",
"X@	c #EC860E",
"Y@	c #4A0206",
"Z@	c #9C4B08",
"`@	c #B55A03",
" #	c #B0693E",
".#	c #818392",
"+#	c #818291",
"@#	c #E47E04",
"##	c #ED8604",
"$#	c #B85B02",
"%#	c #B75B03",
"&#	c #B65A03",
"*#	c #DB7803",
"=#	c #6C6E7D",
"-#	c #9395A3",
";#	c #A77F74",
">#	c #B55B06",
",#	c #480206",
"'#	c #699A70",
")#	c #7B7C68",
"!#	c #C27F1E",
"~#	c #D3870A",
"{#	c #CC7909",
"]#	c #AB6130",
"^#	c #80818D",
"/#	c #989AA7",
"(#	c #808291",
"_#	c #ED8605",
":#	c #B45902",
"<#	c #D7BAA8",
"[#	c #DFCFC8",
"}#	c #D6C4BE",
"|#	c #A48885",
"1#	c #B05D1A",
"2#	c #DA7802",
"3#	c #987169",
"4#	c #898B99",
"5#	c #7B7D8C",
"6#	c #9B6E61",
"7#	c #BC6606",
"8#	c #DB8A07",
"9#	c #C67F0E",
"0#	c #927859",
"a#	c #6F896B",
"b#	c #68946C",
"c#	c #430102",
"d#	c #EA9E1A",
"e#	c #DF9009",
"f#	c #CB770C",
"g#	c #A85C28",
"h#	c #6B6B7A",
"i#	c #868897",
"j#	c #797B89",
"k#	c #777A89",
"l#	c #90898F",
"m#	c #D27207",
"n#	c #D97706",
"o#	c #D87709",
"p#	c #D3C4BD",
"q#	c #D2D1D4",
"r#	c #C0C0C3",
"s#	c #9E9DA7",
"t#	c #B05F22",
"u#	c #CC6C06",
"v#	c #D97705",
"w#	c #DA7606",
"x#	c #B96005",
"y#	c #8E6459",
"z#	c #767786",
"A#	c #8A8C9B",
"B#	c #936252",
"C#	c #BC6505",
"D#	c #D88809",
"E#	c #EE9E07",
"F#	c #91560F",
"G#	c #526649",
"H#	c #D8901D",
"I#	c #B8690E",
"J#	c #A75209",
"K#	c #9D572A",
"L#	c #716A71",
"M#	c #A6520B",
"N#	c #A75208",
"O#	c #A75108",
"P#	c #A08F90",
"Q#	c #767782",
"R#	c #4B4B50",
"S#	c #A45822",
"T#	c #A65208",
"U#	c #86625A",
"V#	c #8B5F53",
"W#	c #A65209",
"X#	c #A65207",
"Y#	c #DB9013",
"Z#	c #864F11",
"`#	c #67946C",
" $	c #420002",
".$	c #420102",
"+$	c #430103",
"@$	c #512D33",
"#$	c #6B6B7B",
"$$	c #6A6C7A",
"%$	c #6A6B7B",
"&$	c #6B6676",
"*$	c #420103",
"=$	c #908894",
"-$	c #757780",
";$	c #4B4B51",
">$	c #9C9CA8",
",$	c #4A1B1D",
"'$	c #625460",
")$	c #5A4A55",
"!$	c #430002",
"~$	c #526648",
"{$	c #549B68",
"]$	c #549061",
"^$	c #539061",
"/$	c #5D5B49",
"($	c #450B0E",
"_$	c #50292D",
":$	c #4E2A2F",
"<$	c #50262C",
"[$	c #8F8992",
"}$	c #767781",
"|$	c #4B1A1E",
"1$	c #4A1E21",
"2$	c #491A1F",
"3$	c #6C9770",
"4$	c #559766",
"5$	c #60644F",
"6$	c #6B2B0A",
"7$	c #924511",
"8$	c #914512",
"9$	c #924512",
"0$	c #944712",
"a$	c #A66F5B",
"b$	c #9C6650",
"c$	c #8F5533",
"d$	c #A87B6A",
"e$	c #934716",
"f$	c #924513",
"g$	c #934511",
"h$	c #843C0F",
"i$	c #410002",
"j$	c #6CA276",
"k$	c #606450",
"l$	c #8B4409",
"m$	c #C56706",
"n$	c #B45801",
"o$	c #9C4B06",
"p$	c #994805",
"q$	c #994804",
"r$	c #994906",
"s$	c #994907",
"t$	c #D0A045",
"u$	c #C98121",
"v$	c #CA892C",
"w$	c #D0A141",
"x$	c #CFA041",
"y$	c #CE8B16",
"z$	c #AF6513",
"A$	c #994806",
"B$	c #AF5603",
"C$	c #BE6205",
"D$	c #B25E0D",
"E$	c #410003",
"F$	c #A1560C",
"G$	c #E57F05",
"H$	c #B35802",
"I$	c #5B1D0E",
"J$	c #460602",
"K$	c #4A0403",
"L$	c #490604",
"M$	c #441103",
"N$	c #FEF877",
"O$	c #F0B83A",
"P$	c #EECC4C",
"Q$	c #F6FA6E",
"R$	c #FEF76C",
"S$	c #FAD01F",
"T$	c #A67D1D",
"U$	c #470B06",
"V$	c #470E08",
"W$	c #470E09",
"X$	c #440309",
"Y$	c #440108",
"Z$	c #450108",
"`$	c #A34F07",
" %	c #D47207",
".%	c #D57813",
"+%	c #A2570B",
"@%	c #E67F05",
"#%	c #5B1C0D",
"$%	c #DA932F",
"%%	c #E06C27",
"&%	c #E0834D",
"*%	c #FDF776",
"=%	c #FFF971",
"-%	c #EFB83A",
";%	c #ADB317",
">%	c #6CCB19",
",%	c #F8CD15",
"'%	c #FBCC12",
")%	c #FBCC1A",
"!%	c #FADE4D",
"~%	c #FDF876",
"{%	c #FDF777",
"]%	c #867149",
"^%	c #440107",
"/%	c #A35007",
"(%	c #D37206",
"_%	c #D67713",
":%	c #B25801",
"<%	c #997128",
"[%	c #E3B62B",
"}%	c #E4B833",
"|%	c #F5C327",
"1%	c #EFA720",
"2%	c #EB9528",
"3%	c #EDB436",
"4%	c #EDB435",
"5%	c #F5BF21",
"6%	c #E9C818",
"7%	c #C2CE1C",
"8%	c #72C917",
"9%	c #F0EE5E",
"0%	c #FCF062",
"a%	c #CEE898",
"b%	c #82D7C5",
"c%	c #EBB538",
"d%	c #E6D76B",
"e%	c #E6DF6F",
"f%	c #C2B662",
"g%	c #A44F06",
"h%	c #5A1C0D",
"i%	c #94701A",
"j%	c #CF9E23",
"k%	c #ECBC31",
"l%	c #B0D3A6",
"m%	c #ECCE43",
"n%	c #F5CD3B",
"o%	c #F4CF50",
"p%	c #F4CC5A",
"q%	c #E76F86",
"r%	c #F7B843",
"s%	c #F9C315",
"t%	c #E4C127",
"u%	c #AFE352",
"v%	c #F5F76E",
"w%	c #F8E15E",
"x%	c #D9DA83",
"y%	c #B4E5AF",
"z%	c #F1D051",
"A%	c #F2D14F",
"B%	c #F9E965",
"C%	c #E9E16A",
"D%	c #B8AC52",
"E%	c #B26F26",
"F%	c #5A1D0D",
"G%	c #CBA21E",
"H%	c #F5C023",
"I%	c #E1A53D",
"J%	c #6CC9CE",
"K%	c #C0CE77",
"L%	c #EBE96C",
"M%	c #FBF56C",
"N%	c #F8E370",
"O%	c #DD76B0",
"P%	c #EFA174",
"Q%	c #F1A93E",
"R%	c #EFAE2F",
"S%	c #F7E863",
"T%	c #FCF76E",
"U%	c #F3C447",
"V%	c #F1BF40",
"W%	c #F7E666",
"X%	c #F3DA68",
"Y%	c #EDA930",
"Z%	c #F6D958",
"`%	c #FBF36C",
" &	c #F9E864",
".&	c #C18630",
"+&	c #5B1F0E",
"@&	c #CBA31D",
"#&	c #F4BD18",
"$&	c #EEA01E",
"%&	c #ED9E17",
"&&	c #62CAD0",
"*&	c #BBEAB4",
"=&	c #F6E35F",
"-&	c #EB9F18",
";&	c #FEF771",
">&	c #E17CB1",
",&	c #E3698D",
"'&	c #EE9D18",
")&	c #ED9D16",
"!&	c #FBF26A",
"~&	c #F4C447",
"{&	c #F09C19",
"]&	c #EE8F1D",
"^&	c #D50F15",
"/&	c #E88D18",
"(&	c #F5D758",
"_&	c #F4DF5C",
":&	c #ED9D15",
"<&	c #EE9D17",
"[&	c #C16B0C",
"}&	c #B45901",
"|&	c #F0BF30",
"1&	c #F1B328",
"2&	c #F2C442",
"3&	c #FBF069",
"4&	c #ED9D18",
"5&	c #ECC62F",
"6&	c #EBB526",
"7&	c #ED9F18",
"8&	c #FEF770",
"9&	c #FCF27C",
"0&	c #FDF377",
"a&	c #EE9C15",
"b&	c #FBF26B",
"c&	c #F3C446",
"d&	c #E37B19",
"e&	c #D64D2D",
"f&	c #FEF175",
"g&	c #FAD22F",
"h&	c #F1B417",
"i&	c #F0B019",
"j&	c #FCC917",
"k&	c #E58008",
"l&	c #ECA51A",
"m&	c #F6BA1D",
"n&	c #F4BE27",
"o&	c #F2B84C",
"p&	c #E657A3",
"q&	c #F4BA3A",
"r&	c #F8C412",
"s&	c #F4C830",
"t&	c #F5DF5A",
"u&	c #FADB40",
"v&	c #F3C740",
"w&	c #C6CE43",
"x&	c #9ED13E",
"y&	c #EC9D16",
"z&	c #F7EA63",
"A&	c #F1CA48",
"B&	c #ECB129",
"C&	c #FDF972",
"D&	c #FBD42C",
"E&	c #F6D845",
"F&	c #F6DA4A",
"G&	c #FCCA16",
"H&	c #ED9C14",
"I&	c #C16B0D",
"J&	c #D67712",
"K&	c #E99811",
"L&	c #F7BC12",
"M&	c #F8C213",
"N&	c #F3AB2C",
"O&	c #E56591",
"P&	c #F1AB39",
"Q&	c #F7BA15",
"R&	c #F5C32F",
"S&	c #F6D956",
"T&	c #F9CD16",
"U&	c #F5B813",
"V&	c #CEBE16",
"W&	c #B0C618",
"X&	c #F2B115",
"Y&	c #F5D554",
"Z&	c #F6D959",
"`&	c #F4CE45",
" *	c #F6BE21",
".*	c #F5D957",
"+*	c #F9CE23",
"@*	c #FADD40",
"#*	c #F9E045",
"$*	c #C26B0D",
"%*	c #A2570C",
"&*	c #E68005",
"**	c #BE6206",
"=*	c #EA950F",
"-*	c #F5B412",
";*	c #F8C310",
">*	c #F7C015",
",*	c #EE9A14",
"'*	c #EE9913",
")*	c #ED9A12",
"!*	c #F8C113",
"~*	c #F9C312",
"{*	c #EE9C14",
"]*	c #EE9914",
"^*	c #EF9913",
"/*	c #F5BC11",
"(*	c #EE9912",
"_*	c #C9700D",
":*	c #D87607",
"<*	c #606550",
"[*	c #A2560C",
"}*	c #EC8604",
"|*	c #EC8605",
"1*	c #EC8705",
"2*	c #ED8704",
"3*	c #ED8705",
"4*	c #D47817",
"5*	c #531A0D",
"6*	c #662B15",
"7*	c #672C17",
"8*	c #662C16",
"9*	c #662C15",
"0*	c #672C15",
"a*	c #672C16",
"b*	c #662D16",
"c*	c #672D16",
"d*	c #5F2615",
"e*	c #602008",
"f*	c #7E3608",
"g*	c #7F3608",
"h*	c #7A330D",
"i*	c #76300B",
"j*	c #7F3508",
"k*	c #847070",
"l*	c #695E64",
"m*	c #493B3F",
"n*	c #877D85",
"o*	c #7E3C1B",
"p*	c #4F1309",
"q*	c #6A2708",
"r*	c #7F3404",
"s*	c #7F3403",
"t*	c #7F3304",
"u*	c #742D07",
"v*	c #6E2B05",
"w*	c #994500",
"x*	c #94410C",
"y*	c #8D3E05",
"z*	c #9C8E8E",
"A*	c #878792",
"B*	c #73727A",
"C*	c #974C1E",
"D*	c #994502",
"E*	c #571B09",
"F*	c #7E3204",
"G*	c #9A4300",
"H*	c #8C3B04",
"I*	c #6F2A05",
"J*	c #8C3E05",
"K*	c #A08988",
"L*	c #9F99A0",
"M*	c #A1989E",
"N*	c #9A4C1E",
"O*	c #994501",
"P*	c #581A0A",
"Q*	c #6CA377",
"R*	c #984503",
"S*	c #984504",
"T*	c #974504",
"U*	c #994401",
"V*	c #581A09",
"W*	c #8D3E0B",
"X*	c #8E3F0E",
"Y*	c #6CA376",
"Z*	c #6E2A06",
"`*	c #94410D",
" =	c #7F3204",
".=	c #8C3C08",
"+=	c #410102",
"@=	c #63795C",
"#=	c #6B4A32",
"$=	c #883A0C",
"%=	c #883B0D",
"&=	c #873B0C",
"*=	c #82370F",
"==	c #7E350D",
"-=	c #873B0D",
";=	c #521509",
">=	c #712B0B",
",=	c #893A0A",
"'=	c #893A0B",
")=	c #8B3C0D",
"!=	c #8B3D0F",
"~=	c #8A3C0E",
"{=	c #7E3F1F",
"]=	c #4F543D",
"^=	c #65A172",
"/=	c #4C7A51",
"(=	c #3F0102",
"_=	c #400102",
":=	c #410103",
"<=	c #400203",
"[=	c #3F0203",
"}=	c #410304",
"|=	c #3F0202",
"1=	c #444831",
"2=	c #529B67",
"3=	c #549A67",
"4=	c #589D6B",
"      . . . . . . . . . . . . . . . . . . . . . . . . . . . . . . . . . . . . . . . . . .       ",
"      . . . . . . . . . + @ # . . . . . . . . . . . . . . . . . . $ % % & . . . . . . . .       ",
"      . . . . . . * = - ; > , = = ' . . . . . . . . . . . . . ) = ! > > ~ { ] . . . . . .       ",
"      . . . . . ^ / ( _ : < [ } | 1 2 3 3 3 3 2 3 3 3 3 3 3 4 5 6 7 8 9 0 a b 2 . . . . .       ",
"      . . . . . c d e f g h i j k l m n n n n n n n n n n n o p q r s < t u v w x . . . .       ",
"      . . . y z A B C D E F G H I J K K K K L L M M N N M L K O P Q R < S T U V W X . . .       ",
"      . . . 3 Y Z `  ...+.@.@.#.$.%.&.&.*.*.*.=.-.;.;.;.;.;.>.,.'.).R !.~.{.].^./.(.. . .       ",
"      . . . 2 _.:.<.[.}.|.1.2.#.3.4.5.6.6.7.8.9.0.a.b.b.b.a.0.c.d.e.R f.g.h.i.j.k.l.. . .       ",
"      . . . 2 m.n.o.p.q.r.s.t.u.v.w.w.x.y.w.z.A.z.B.B.C.z.B.z.D.d.E.F.G.H.I.J.K.L.M.. . .       ",
"      . . N.O.P.Q.R.p.S.T.U.V.W.X.Y.Z.`.`.`.`.`.`.`.`. +.+++@+#+d.$+%+&+*+=+-+;+>+,+'+. .       ",
"      . )+!+~+{+]+^+p./+&+&+&+(+X._+:+<+:+:+:+:+:+:+:+:+[+;.;.}+d.&+&+&+&+|+1+2+3+4+5+6+7+      ",
"      . 8+9+0+a+b+c+p.d+&+&+&+(+e+f+;.;.;.;.;.;.>.;.;.;.;.;.>.g+h+&+&+&+&+i+j+k+l+m+n+o+.       ",
"      . p+q+r+s+b+t+u+d+&+&+&+(+X.v+w+w+w+w+w+w+w+w+w+w+w+w+w+g+h+&+&+&+&+|+j+k+l+x+y+o+.       ",
"      . p+z+A+B+C+D+E+F+G+H+I+(+J+K+L+L+M+M+M+M+M+M+M+M+M+L+N+O+P+Q+&+R+S+T+j+U+/.V+W+o+.       ",
"      . X+z+Y+Z+C+D+`+ @.@+@@@#@$@%@&@&@&@&@&@&@&@&@&@&@&@&@*@=@-@;@>@,@S+T+'@)@l+!@~@o+.       ",
"      . {@]@^@/@(@_@:@<@,@,@[@}@|@1@2@3@3@3@3@3@3@3@3@4@5@4@6@7@8@,@,@,@9@0@a@b@c@d@e@f@.       ",
"      . . g@h@P.i@j@k@l@,@,@,@m@n@o@p@q@q@q@q@q@q@q@p@r@s@t@u@v@w@,@,@,@<@x@y@z@A@B@C@. .       ",
"      . . . 2 Y D@E@F@G@,@H@H@#.I@J@K@K@L@M@N@O@O@P@Q@Q@R@S@S@T@U@H@,@H@,@V@W@X@Y@l.. . .       ",
"      . . . 3 Y Z@`@ # @H@.#+##.J+@#&@&@##$#%#%#&#&#%#*#&@&@*@O+-@H@,@=#-#;#A.>#,#M.. . .       ",
"      . . '#)#!#~#{#]#^#/#F (##.J+@#&@&@_#:#<#[#}#|#1#2#&@&@*@O+3#4#,@< 5#6#7#8#9#0#a#. .       ",
"      . . b#c#d#e#f#g#h#i#j#k#l#$.m#t+n#o#z.p#q#r#s#t#u#n#v#w#x#y#z#A#< < B#C#D#E#F#G#. .       ",
"      . . b#c#H#I#J#K#h#< < < L#M#N#O#O#N#N#P#Q#R#A+S#N#O#O#N#T#U#< < < < V#W#X#Y#Z#G#. .       ",
"      . . `# $.$+$ $@$#$$$%$%$&$*$ $ $ $ $ $=$-$;$>$,$ $ $ $ $ $'$%$%$%$%$)$ $!$*$.$~$. .       ",
"      . . {$]$^$/$ $($_$:$:$:$<$ $ $ $ $a *$[$}$;$>$|$ $ $ $ $ $1$:$:$:$:$2$ $ $3$]$4$. .       ",
"      . . . . . 5$6$7$8$9$8$8$8$8$8$7$0$0$7$a$b$c$d$e$9$8$8$8$8$8$8$8$f$8$g$h$i$j$. . . .       ",
"      . . . . . k$l$m$n$o$p$p$p$p$p$q$r$s$t$u$v$w$x$y$z$p$A$A$p$p$p$p$p$B$C$D$E$j$. . . .       ",
"      . . . . . k$F$G$H$I$ $!$!$!$J$K$L$M$N$O$P$Q$R$S$T$U$V$W$X$Y$Y$Y$Z$`$ %.%E$j$. . . .       ",
"      . . . . . k$+%@%H$#% $ $ $ $$%%%&%*%=%-%;%>%,%'%)%!%~%{%]%^%Y$Y$Y$/%(%_%i$j$. . . .       ",
"      . . . . . k$+%@%:%#% $<%[%}%|%1%2%3%4%5%6%7%8%9%0%a%b%c%d%e%f%Z$Y$g%(%_%i$j$. . . .       ",
"      . . . . . k$+%@%:%h%i%j%k%l%m%n%o%p%q%r%s%t%u%v%w%x%y%z%A%B%C%D%D%E% %_%i$j$. . . .       ",
"      . . . . . k$+%@%H$F%G%H%I%J%K%L%M%N%O%P%Q%R%S%T%U%V%W%X%Y%Z%`% & &.& %_%i$j$. . . .       ",
"      . . . . . k$+%G$H$+&@&#&$&%&&&*&=&-&;&>&,&'&)&!&~&{&]&^&/&(&_&:&<&[& %_%i$j$. . . .       ",
"      . . . . . k$+%@%}&|&1&2&3&4&5&6&7&-&8&9&0&S%a&b&c&d&e&f&g&h&i&j&a&[& %_%i$j$. . . .       ",
"      . . . . . k$+%k&n$l&m&n&o&p&q&r&s&t&u&v&w&x&y&b&z&A&B&C&D&E&F&G&H&I& %J&i$j$. . . .       ",
"      . . . . . k$+%G$n$K&L&M&N&O&P&Q&R&S&T&U&V&W&X&Y&Z&`& *.*+*@*#*G&H&$* %J&i$j$. . . .       ",
"      . . . . . k$%*&***=*-*;*>*,*'*'*'*)*!*;*;*;*~*{*]*]*]*^*/*;*;*M&(*_*:*J&a j$. . . .       ",
"      . . . . . <*[*R@}*##_###|*}*}*}*######}*_#1*1*##}*}*}*##2*}*}*}*}*2*3*4*a j$. . . .       ",
"      . . . . . k$5*6*7*8*9*9*0*0*a*a*8*8*9*a*8*b*c*9*a*a*a*8*9*a*0*9*9*9*9*d*a j$. . . .       ",
"      . . . . . k$e*f*g*g*g*g*h*.$i*j*g*g*g*k*l*m*n*o*g*g*j*g*p*q*r*s*s*r*t*u*a j$. . . .       ",
"      . . . . . k$v*w*w*w*w*w*x* $y*w*w*w*w*z*A*B*A+C*w*w*w*D*E*F*G*G*G*G*G*H*a j$. . . .       ",
"      . . . . . k$I*w*w*w*w*w*x* $J*w*w*w*w*K*L*L*M*N*w*w*w*O*P*F*G*G*G*G*G*H*a Q*. . . .       ",
"      . . . . . k$I*w*w*w*w*w*x* $J*w*w*w*w*R*S*S*T*U*w*w*w*O*V*F*G*G*G*G*G*W*i$j$. . . .       ",
"      . . . . . k$I*w*w*w*w*w*x* $J*w*w*w*w*w*w*w*w*w*w*w*w*O*V*F*G*G*G*G*G*X**$Y*. . . .       ",
"      . . . . . k$Z*w*w*w*w*w*`* $J*w*w*w*w*w*w*w*w*w*w*w*w*D*V* =G*G*G*G*G*.=+=Y*. . . .       ",
"      . . . . . @=#=$=%=%=%=&=*= $==-=-=-=-=-=-=-=-=-=-=-=-=%=;=>=,='=)=!=~={=]=^=. . . .       ",
"      . . . . . . /=(=_=_=_=_=_=(=_=_=_=_=_=_=_=_=_=_=_=_=(=(=(=(=:=<=[=}=|=1=. . . . . .       ",
"      . . . . . . 2=3=3=3=3=3=3=3=3=3=3=3=3=3=3=3=3=3=3=3=3=3=3=3=3=3=3=3=3=4=. . . . . .       ",
"      . . . . . . . . . . . . . . . . . . . . . . . . . . . . . . . . . . . . . . . . . .       "};
