/* XPM */
static char * chest_close_xpm[] = {
"48 48 639 2",
"  	c #509B66",
". 	c #4F9C66",
"+ 	c #529B67",
"@ 	c #4D8D5E",
"# 	c #4F9663",
"$ 	c #4E9361",
"% 	c #4D8D5D",
"& 	c #4F8D5F",
"* 	c #5D986A",
"= 	c #420408",
"- 	c #440207",
"; 	c #527954",
"> 	c #486543",
", 	c #440208",
"' 	c #47211E",
") 	c #529D69",
"! 	c #607158",
"~ 	c #5B4340",
"{ 	c #5D4342",
"] 	c #6B6575",
"^ 	c #6A6675",
"/ 	c #625258",
"( 	c #5C433F",
"_ 	c #5A4440",
": 	c #529A67",
"< 	c #619A6D",
"[ 	c #685A63",
"} 	c #6D6473",
"| 	c #5C4340",
"1 	c #6B8769",
"2 	c #51684A",
"3 	c #4D3C2E",
"4 	c #51333B",
"5 	c #635B69",
"6 	c #8D8E9C",
"7 	c #727483",
"8 	c #655E6D",
"9 	c #5A4652",
"0 	c #420102",
"a 	c #4F5F43",
"b 	c #4B5E3F",
"c 	c #4B5E3E",
"d 	c #4B5F3F",
"e 	c #535D44",
"f 	c #420001",
"g 	c #5A4D59",
"h 	c #7F7C89",
"i 	c #818392",
"j 	c #6A6B7A",
"k 	c #5D5663",
"l 	c #4D242C",
"m 	c #544D3C",
"n 	c #4F714E",
"o 	c #509664",
"p 	c #507953",
"q 	c #9F5A24",
"r 	c #8F470C",
"s 	c #815D58",
"t 	c #838592",
"u 	c #9C9EAB",
"v 	c #767887",
"w 	c #787A88",
"x 	c #817278",
"y 	c #7E3A07",
"z 	c #A4690A",
"A 	c #A46A0C",
"B 	c #A46A0E",
"C 	c #A46B0F",
"D 	c #A56A0B",
"E 	c #A46909",
"F 	c #A46908",
"G 	c #A0650A",
"H 	c #7D3908",
"I 	c #7E7982",
"J 	c #9194A0",
"K 	c #8C8E9C",
"L 	c #6B6D7C",
"M 	c #838491",
"N 	c #805041",
"O 	c #964C0D",
"P 	c #956030",
"Q 	c #4E7952",
"R 	c #559C69",
"S 	c #4D8C5D",
"T 	c #440209",
"U 	c #CC700C",
"V 	c #BC6308",
"W 	c #A37464",
"X 	c #7F818F",
"Y 	c #8E909D",
"Z 	c #9F8C8D",
"` 	c #A45107",
" .	c #DA9108",
"..	c #D99107",
"+.	c #D99106",
"@.	c #D99005",
"#.	c #D98F05",
"$.	c #D98F04",
"%.	c #D38905",
"&.	c #A35008",
"*.	c #9A9299",
"=.	c #9B9DAA",
"-.	c #8F919E",
";.	c #777988",
">.	c #9D9EAC",
",.	c #A36649",
"'.	c #C46A07",
").	c #BF6912",
"!.	c #420209",
"~.	c #5D9D6C",
"{.	c #4D8C5C",
"].	c #450209",
"^.	c #71616A",
"/.	c #8A848F",
"(.	c #450104",
"_.	c #450102",
":.	c #450103",
"<.	c #450105",
"[.	c #918F9B",
"}.	c #9B9DAB",
"|.	c #9B9DAC",
"1.	c #5F4C54",
"2.	c #450207",
"3.	c #450208",
"4.	c #D5760C",
"5.	c #C46707",
"6.	c #CDA694",
"7.	c #E8EAEC",
"8.	c #A38C8E",
"9.	c #B05805",
"0.	c #E3980C",
"a.	c #E2980C",
"b.	c #E29707",
"c.	c #DB9006",
"d.	c #AD5402",
"e.	c #E5DEDC",
"f.	c #C4C5CC",
"g.	c #9C9DAA",
"h.	c #A86848",
"i.	c #CD6F09",
"j.	c #C76D11",
"k.	c #410209",
"l.	c #E6AD5F",
"m.	c #D18940",
"n.	c #D4AC96",
"o.	c #EEF0F2",
"p.	c #CECFD5",
"q.	c #B8B9C2",
"r.	c #A58E8F",
"s.	c #B35901",
"t.	c #F6C164",
"u.	c #F7C165",
"v.	c #F6C165",
"w.	c #EEA92D",
"x.	c #EDA002",
"y.	c #E69803",
"z.	c #B45900",
"A.	c #ECE5E4",
"B.	c #C8C9CF",
"C.	c #B4B6BF",
"D.	c #D9D9DD",
"E.	c #9C9EA9",
"F.	c #AE6B48",
"G.	c #DA974A",
"H.	c #D6A15A",
"I.	c #420108",
"J.	c #430209",
"K.	c #EFC47A",
"L.	c #D59752",
"M.	c #D4AC97",
"N.	c #F2F3F5",
"O.	c #C8C9D0",
"P.	c #EFEFF1",
"Q.	c #DDDEE2",
"R.	c #C3B0AB",
"S.	c #B35A01",
"T.	c #FED280",
"U.	c #FED281",
"V.	c #FFD281",
"W.	c #FED181",
"X.	c #F5BD5C",
"Y.	c #F3B74E",
"Z.	c #EFA829",
"`.	c #ECE4E4",
" +	c #DDDDE0",
".+	c #DADBE0",
"++	c #F7F7F7",
"@+	c #C8C8CF",
"#+	c #B6795B",
"$+	c #E0A95F",
"%+	c #DFB572",
"&+	c #420107",
"*+	c #5D9D6D",
"=+	c #529865",
"-+	c #52835A",
";+	c #E4B76D",
">+	c #CF8F49",
",+	c #F7F7FA",
"'+	c #F8F8FA",
")+	c #F8F7FA",
"!+	c #F7F8F9",
"~+	c #E7D6CE",
"{+	c #F3C475",
"]+	c #F4C474",
"^+	c #F3C474",
"/+	c #F3C574",
"(+	c #E9A940",
"_+	c #E49702",
":+	c #DF9003",
"<+	c #ECE5E3",
"[+	c #F8F9F9",
"}+	c #C18D72",
"|+	c #D89E56",
"1+	c #D4A967",
"2+	c #430208",
"3+	c #609369",
"4+	c #549B67",
"5+	c #519C67",
"6+	c #507853",
"7+	c #430308",
"8+	c #440107",
"9+	c #AB5203",
"0+	c #B45801",
"a+	c #D4AD97",
"b+	c #F7F8FA",
"c+	c #F7F7F9",
"d+	c #E8D6CE",
"e+	c #B55800",
"f+	c #B55900",
"g+	c #C18D71",
"h+	c #B35902",
"i+	c #9D4D08",
"j+	c #5A8961",
"k+	c #509C67",
"l+	c #75806D",
"m+	c #7E7477",
"n+	c #8B858E",
"o+	c #E8B970",
"p+	c #D1904B",
"q+	c #D5AD98",
"r+	c #F6C778",
"s+	c #F6C878",
"t+	c #F2BF6A",
"u+	c #E79805",
"v+	c #E79804",
"w+	c #E19006",
"x+	c #DBA159",
"y+	c #D8AC6A",
"z+	c #42020A",
"A+	c #97929E",
"B+	c #726464",
"C+	c #5A7558",
"D+	c #686F5B",
"E+	c #999294",
"F+	c #C7C6C9",
"G+	c #E59D49",
"H+	c #D07F30",
"I+	c #F8F8F9",
"J+	c #B45A00",
"K+	c #F3B64B",
"L+	c #F3B54B",
"M+	c #F1B142",
"N+	c #ED9F02",
"O+	c #ED9F01",
"P+	c #E69703",
"Q+	c #D98B37",
"R+	c #D59144",
"S+	c #DBDBDE",
"T+	c #7A6A6C",
"U+	c #4C6545",
"V+	c #989193",
"W+	c #C6C5C9",
"X+	c #E07D07",
"Y+	c #CE6E04",
"Z+	c #C69A85",
"`+	c #DCDDE2",
" @	c #F8F8FB",
".@	c #E0E0E5",
"+@	c #EBECEF",
"@@	c #E7D7CE",
"#@	c #EE9F05",
"$@	c #EB9F04",
"%@	c #F0C892",
"&@	c #F0C997",
"*@	c #EEC285",
"=@	c #D1CACA",
"-@	c #EDECEF",
";@	c #EDEDF0",
">@	c #DBDAE0",
",@	c #D67405",
"'@	c #D0740D",
")@	c #DADADE",
"!@	c #796A6C",
"~@	c #73686F",
"{@	c #908F9A",
"]@	c #AE7861",
"^@	c #A5A6B2",
"/@	c #ECEDF1",
"(@	c #B0B0BB",
"_@	c #D8D9DE",
":@	c #E8D7CE",
"<@	c #EE9C05",
"[@	c #ED9C02",
"}@	c #E49605",
"|@	c #E09721",
"1@	c #ECAE4E",
"2@	c #E7E2DD",
"3@	c #E6E2E4",
"4@	c #E5D9CD",
"5@	c #EEAD4B",
"6@	c #DD930E",
"7@	c #E69404",
"8@	c #9D9398",
"9@	c #D2D2D7",
"0@	c #D4D4D9",
"a@	c #A0A0AB",
"b@	c #D67504",
"c@	c #D1740D",
"d@	c #9D9CA8",
"e@	c #614A4F",
"f@	c #666E5A",
"g@	c #736770",
"h@	c #918E9B",
"i@	c #DF7D09",
"j@	c #CE6D05",
"k@	c #AD7761",
"l@	c #D7D9DE",
"m@	c #EE8606",
"n@	c #EE8603",
"o@	c #AF5E14",
"p@	c #877978",
"q@	c #F9F8F6",
"r@	c #3F0004",
"s@	c #44030B",
"t@	c #45050C",
"u@	c #877375",
"v@	c #F8F8F6",
"w@	c #583638",
"x@	c #C3690A",
"y@	c #E78005",
"z@	c #B45901",
"A@	c #9D9499",
"B@	c #9EA0AC",
"C@	c #C18D70",
"D@	c #D67505",
"E@	c #D0740E",
"F@	c #9D9CA9",
"G@	c #614A50",
"H@	c #569666",
"I@	c #567355",
"J@	c #553136",
"K@	c #672B0C",
"L@	c #62250A",
"M@	c #7D656A",
"N@	c #A4A7B2",
"O@	c #9A9399",
"P@	c #5B1D04",
"Q@	c #692E09",
"R@	c #692E08",
"S@	c #826A6E",
"T@	c #AEACB2",
"U@	c #918F99",
"V@	c #92909C",
"W@	c #93919D",
"X@	c #ADAAB3",
"Y@	c #9C99A4",
"Z@	c #7D5C5C",
"`@	c #682C09",
" #	c #5B1C05",
".#	c #928F9C",
"+#	c #ABAEB8",
"@#	c #745856",
"##	c #64280B",
"$#	c #62270D",
"%#	c #59353B",
"&#	c #5B815D",
"*#	c #4F9462",
"=#	c #4E8E5E",
"-#	c #4A6C49",
";#	c #B6620D",
">#	c #A7560A",
",#	c #987166",
"'#	c #9A898D",
")#	c #944607",
"!#	c #BF690B",
"~#	c #6B320B",
"{#	c #7C7079",
"]#	c #9F9FA9",
"^#	c #A4A4A5",
"/#	c #9B9DA9",
"(#	c #9D9EA9",
"_#	c #A4A4A4",
":#	c #9B9BA8",
"<#	c #735E65",
"[#	c #864612",
"}#	c #BA650B",
"|#	c #924609",
"1#	c #98929B",
"2#	c #965F4D",
"3#	c #AF5B0A",
"4#	c #AA5B11",
"5#	c #420208",
"6#	c #537A55",
"7#	c #539563",
"8#	c #CB6F08",
"9#	c #C36605",
"0#	c #AC7762",
"a#	c #9C9DAB",
"b#	c #8E909E",
"c#	c #9596A3",
"d#	c #A38C8C",
"e#	c #B35903",
"f#	c #DA7705",
"g#	c #75380A",
"h#	c #9A8F95",
"i#	c #BFC1C5",
"j#	c #A3A3A4",
"k#	c #C7C8CD",
"l#	c #C6C8CE",
"m#	c #B8B9C0",
"n#	c #67676F",
"o#	c #9698A4",
"p#	c #954E10",
"q#	c #D57305",
"r#	c #B25A03",
"s#	c #9D9399",
"t#	c #9698A5",
"u#	c #C96B04",
"v#	c #BF670D",
"w#	c #589B6A",
"x#	c #638B64",
"y#	c #6C3913",
"z#	c #B4600A",
"A#	c #B65E04",
"B#	c #AB745E",
"C#	c #9798A6",
"D#	c #8A8C9A",
"E#	c #B45904",
"F#	c #BB6006",
"G#	c #6A2C08",
"H#	c #B7ACAD",
"I#	c #EDEDF1",
"J#	c #EDECF1",
"K#	c #EDECF2",
"L#	c #E0E1E5",
"M#	c #9698A7",
"N#	c #705B63",
"O#	c #823F0C",
"P#	c #B96005",
"Q#	c #B25903",
"R#	c #998E95",
"S#	c #999BA9",
"T#	c #6C6E7D",
"U#	c #AE6945",
"V#	c #B86005",
"W#	c #AB5B0E",
"X#	c #6A3917",
"Y#	c #6B9A72",
"Z#	c #569C69",
"`#	c #4F7852",
" $	c #7A4719",
".$	c #ED9E05",
"+$	c #EE9E05",
"@$	c #CC7A06",
"#$	c #9D6042",
"$$	c #717180",
"%$	c #9A9CAB",
"&$	c #8A8C9B",
"*$	c #A38C8D",
"=$	c #B45A02",
"-$	c #EF8505",
";$	c #7D400B",
">$	c #7E7079",
",$	c #6E707F",
"'$	c #594047",
")$	c #A15911",
"!$	c #E77F03",
"~$	c #B25A04",
"{$	c #766970",
"]$	c #8B8D9C",
"^$	c #6A6C7B",
"/$	c #A75E32",
"($	c #D58508",
"_$	c #ED9E04",
":$	c #EC9E14",
"<$	c #430002",
"[$	c #59895F",
"}$	c #4E7851",
"|$	c #7A471A",
"1$	c #EE9F04",
"2$	c #C66F0A",
"3$	c #B85F04",
"4$	c #9D5F43",
"5$	c #6B6D7D",
"6$	c #757685",
"7$	c #707281",
"8$	c #896E6C",
"9$	c #BF6206",
"0$	c #6B2D09",
"a$	c #63636C",
"b$	c #71727C",
"c$	c #6F707F",
"d$	c #593F47",
"e$	c #84400D",
"f$	c #BD6107",
"g$	c #76696F",
"h$	c #6F7180",
"i$	c #A95E33",
"j$	c #BB6208",
"k$	c #CD7809",
"l$	c #EC9F12",
"m$	c #420002",
"n$	c #588A5F",
"o$	c #4F7851",
"p$	c #5D2D14",
"q$	c #A26915",
"r$	c #82400C",
"s$	c #7E3A09",
"t$	c #78504B",
"u$	c #6B6C7B",
"v$	c #6F5F66",
"w$	c #7E3A0B",
"x$	c #7D390C",
"y$	c #521808",
"z$	c #4F5058",
"A$	c #65666F",
"B$	c #5E230D",
"C$	c #7D390B",
"D$	c #7D3A0C",
"E$	c #6B646F",
"F$	c #7A4737",
"G$	c #7D3805",
"H$	c #88480C",
"I$	c #A16A1B",
"J$	c #588A60",
"K$	c #5D6A51",
"L$	c #5E6951",
"M$	c #4A211E",
"N$	c #513239",
"O$	c #5E5460",
"P$	c #5E5360",
"Q$	c #59444F",
"R$	c #7D6F79",
"S$	c #9A9B9F",
"T$	c #9A9BA2",
"U$	c #584C57",
"V$	c #5D5562",
"W$	c #5C5561",
"X$	c #49232A",
"Y$	c #4C3127",
"Z$	c #5E6A51",
"`$	c #5C9367",
" %	c #4C342A",
".%	c #490803",
"+%	c #4E0D04",
"@%	c #4B0A05",
"#%	c #440303",
"$%	c #DDDDE3",
"%%	c #D2D2D9",
"&%	c #9A9CA9",
"*%	c #593F46",
"=%	c #470503",
"-%	c #4D0C04",
";%	c #4E0F06",
">%	c #521207",
",%	c #4F0E04",
"'%	c #480503",
")%	c #4A5036",
"!%	c #7F3504",
"~%	c #994501",
"{%	c #86390A",
"]%	c #9A4301",
"^%	c #5C1D05",
"/%	c #9496A3",
"(%	c #593F48",
"_%	c #6E2905",
":%	c #913F05",
"<%	c #420103",
"[%	c #903E05",
"}%	c #9A4300",
"|%	c #9A4400",
"1%	c #9B4400",
"2%	c #712B02",
"3%	c #7F3503",
"4%	c #994500",
"5%	c #863909",
"6%	c #903D02",
"7%	c #793E31",
"8%	c #715F68",
"9%	c #808290",
"0%	c #767886",
"a%	c #747584",
"b%	c #51323A",
"c%	c #7B3519",
"d%	c #923F01",
"e%	c #924007",
"f%	c #8F3D03",
"g%	c #712B01",
"h%	c #9A4601",
"i%	c #9A4602",
"j%	c #8D3B03",
"k%	c #7D4234",
"l%	c #756770",
"m%	c #604F59",
"n%	c #57454E",
"o%	c #58454E",
"p%	c #7C3411",
"q%	c #913E02",
"r%	c #923E02",
"s%	c #8E3D02",
"t%	c #9A4703",
"u%	c #923F05",
"v%	c #6D2706",
"w%	c #974002",
"x%	c #9A4401",
"y%	c #8F3D02",
"z%	c #5B4B41",
"A%	c #7F3C1F",
"B%	c #934109",
"C%	c #924108",
"D%	c #924208",
"E%	c #80360C",
"F%	c #934008",
"G%	c #944007",
"H%	c #944008",
"I%	c #95420C",
"J%	c #96430D",
"K%	c #8C3B07",
"L%	c #893A06",
"M%	c #954004",
"N%	c #944004",
"O%	c #944104",
"P%	c #743822",
"Q%	c #575D47",
"R%	c #549F6A",
"S%	c #536448",
"T%	c #637E5D",
"U%	c #4F9361",
"V%	c #539765",
"                                                                                                ",
"                                                                                                ",
"                                                                                                ",
"                                                                                                ",
"                                                                                                ",
"                                                                                                ",
"      . . . . . . . . . . . . . . . . . . . . . . . . . . . . . . . . . . . . . . . . . .       ",
"      . . . . . . . . + @ @ # . . . . . . . . . . . . . . . . . . $ % & . . . . . . . . .       ",
"      . . . . . . . . * = - ; . . . . . . . . . . . . . . . . . . > , ' ) . . . . . . . .       ",
"      . . . . . . ! ~ { ] ^ / ( _ : . . . . . . . . . . . . < ( ( [ ^ } ~ | 1 . . . . . .       ",
"      . . . . . 2 3 4 5 6 7 8 9 0 a b c d c c c c c c c c c e f g h i j k l m n . . . . .       ",
"      . . . o p q r s t u v w x y z A B C D E F F F F F E z G H I J K L M N O P Q R . . .       ",
"      . . . S T U V W u u X Y Z `  ...+.@.#.#.#.#.#.#.#.#.$.%.&.*.=.-.;.>.,.'.).!.~.. . .       ",
"      . . . {., ]., ^.u u u u /.(._._.:.(.(.(.(.(.(.(.(.(.:.(.<.[.=.=.}.|.1.2.3.!.~.. . .       ",
"      . . . S ].4.5.6.7.u u u 8.9.0.a.b.b.b.b.b.b.b.b.b.b.b.c.d.e.f.}.=.g.h.i.j.k.~.. . .       ",
"      . . . S , l.m.n.o.u p.q.r.s.t.u.t.t.v.v.w.x.x.x.x.x.x.y.z.A.B.C.D.E.F.G.H.I.~.. . .       ",
"      . . . S J.K.L.M.N.O.P.Q.R.S.T.U.V.V.U.W.X.Y.Y.Y.Y.Z.x.y.z.`. +.+++@+#+$+%+&+*+. . .       ",
"      . . =+-+T ;+>+M.,+'+)+!+~+S.{+]+]+]+]+]+^+^+/+/+/+(+_+:+z.<+'+'+'+[+}+|+1+2+3+4+. .       ",
"      . 5+6+7+8+9+0+a+b+c+'+'+d+z.z.z.z.z.z.z.z.e+z.f+f+z.z.z.z.<+'+'+'+[+g+h+i+3.7+j+k+.       ",
"      . l+m+n+2+o+p+q+,+c+'+'+d+S.r+s+s+s+s+s+s+s+t+u+v+v+v+w+z.<+'+'+'+[+g+x+y+z+A+B+C+.       ",
"      . D+E+F+2+G+H+M.,+I+'+'+d+J+K+L+L+L+L+L+L+L+M+N+O+O+O+P+z.<+'+'+'+[+g+Q+R+2+S+T+U+.       ",
"      . D+V+W+, X+Y+Z+`+ @.@+@@@z.#@O+O+O+$@%@&@&@*@N+O+O+O+P+z.=@-@;@>@I+g+,@'@J.)@!@U+.       ",
"      . D+~@{@2+X+Y+]@^@/@(@_@:@z.<@[@}@|@1@2@3@3@4@5@6@v+[@7@z.8@9@0@a@I+g+b@c@2+d@e@U+.       ",
"      . f@g@h@J.i@j@k@g.g.=.l@:@f+m@n@o@p@q@r@s@t@u@v@w@x@n@y@z@A@=.}.B@I+C@D@E@!.F@G@U+.       ",
"      . H@I@J@, K@L@M@g.=.=.N@O@P@Q@R@S@T@ @U@V@W@X@,+Y@Z@R@`@ #.#=.=.u +#@###$#, %#&#*#.       ",
"      . . =#-#7+;#>#,#g.=.=.=.'#)#!#~#{#]#^#/#=.}.(#_#:#<#[#}#|#1#=.=.=.g.2#3#4#5#6#7#. .       ",
"      . . . S 2+8#9#0#a#}.b#c#d#e#f#g#h#i#j#k#l#l#m#n#o#<#p#q#r#s#=.t#K }.F.u#v#5#~.. . .       ",
"      . . w#x#y#z#A#B#C#}.v D#d#E#F#G#H#;@I#J#K#I#L#|.M#N#O#P#Q#R#S#K T#t#U#V#W#X#Y#Z#. .       ",
"      . . `# $.$+$@$#$$$%$v &$*$=$-$;$>$=.=.=.=.=./#=.,$'$)$!$~${$]$K ^$^$/$($_$:$<$[$. .       ",
"      . . }$|$1$2$3$4$5$6$T#7$8$E#9$0${#=.=.=.a$b$=.}.c$d$e$f$e#g$h$7$^$^$i$j$k$l$m$n$. .       ",
"      . . o$p$q$r$s$t$^$u$^$^$v$w$x$y${#=.=.=.z$A$=.}.c$d$B$C$D$E$^$^$^$^$F$G$H$I$m$[$. .       ",
"      . . J$K$L$M$m$N$O$O$P$P$Q$m$m$m$R$=.=.=.S$T$=.}.c$d$m$m$m$U$V$V$W$V$X$m$Y$Z$Z$`$. .       ",
"      . . . . .  %.%+%+%+%+%+%@%m$+%#%{#=.=.=.$%%%&%C#,$*%=%-%m$;%>%,%,%,%,%'%)%. . . . .       ",
"      . . . . .  %!%~%~%~%~%~%{%<$]%^%>$a#=.=.=.=./%^$u$(%_%:%<%[%}%|%1%1%1%2%)%. . . . .       ",
"      . . . . .  %3%4%4%4%4%4%5%<$}%6%7%8%a#=.9%0%a%u$b%c%d%e%0 f%1%1%1%1%|%g%)%. . . . .       ",
"      . . . . .  %3%4%h%i%4%4%5%<$}%}%j%k%l%l%m%n%n%o%p%q%]%r%m$s%1%1%1%1%|%g%)%. . . . .       ",
"      . . . . .  %3%4%i%t%4%4%5%<$}%}%}%u%v%v%v%v%v%v%w%]%x%r%m$y%1%1%1%1%|%g%)%. . . . .       ",
"      . . . . . z%A%B%C%D%C%C%E%<$F%G%G%G%G%G%G%G%G%G%H%I%J%K%m$L%M%M%M%N%O%P%Q%. . . . .       ",
"      . . . . . R%S%m$m$m$m$m$m$m$m$m$m$m$m$m$m$m$m$m$m$m$m$m$m$m$m$m$m$m$m$T%R%. . . . .       ",
"      . . . . . . U%S S S S S S S S S S S S S S S S S S S S S S S S S S S S V%. . . . . .       ",
"      . . . . . . . . . . . . . . . . . . . . . . . . . . . . . . . . . . . . . . . . . .       ",
"                                                                                                ",
"                                                                                                ",
"                                                                                                ",
"                                                                                                ",
"                                                                                                ",
"                                                                                                ",
"                                                                                                "};
