/* XPM */
static char * chest_open_xpm[] = {
"48 48 625 2",
"  	c #509B66",
". 	c #4F9C66",
"+ 	c #4F9C67",
"@ 	c #509C66",
"# 	c #51885C",
"$ 	c #4A3A2C",
"% 	c #6D9571",
"& 	c #6B8A6A",
"* 	c #493A2C",
"= 	c #6DA277",
"- 	c #4E6F4D",
"; 	c #486543",
"> 	c #515F4B",
", 	c #625461",
"' 	c #615561",
") 	c #5F6857",
"! 	c #496543",
"~ 	c #527754",
"{ 	c #539A67",
"] 	c #486644",
"^ 	c #496544",
"/ 	c #64675F",
"( 	c #615560",
"_ 	c #566A50",
": 	c #54825B",
"< 	c #559B69",
"[ 	c #6F9673",
"} 	c #503A32",
"| 	c #4E2A2F",
"1 	c #5E505A",
"2 	c #7A7C8B",
"3 	c #6A6C7B",
"4 	c #574751",
"5 	c #4C282F",
"6 	c #54453A",
"7 	c #709874",
"8 	c #729975",
"9 	c #739975",
"0 	c #749574",
"a 	c #420309",
"b 	c #503037",
"c 	c #695E6C",
"d 	c #777987",
"e 	c #6B6C7A",
"f 	c #523843",
"g 	c #4B1F26",
"h 	c #5B5F4B",
"i 	c #6E9873",
"j 	c #519B66",
"k 	c #548C61",
"l 	c #460207",
"m 	c #450206",
"n 	c #61545F",
"o 	c #9C9DAB",
"p 	c #6A6B7B",
"q 	c #5F515E",
"r 	c #440206",
"s 	c #440205",
"t 	c #450205",
"u 	c #67616E",
"v 	c #848693",
"w 	c #9395A4",
"x 	c #6A6C7C",
"y 	c #696B7B",
"z 	c #58424E",
"A 	c #450105",
"B 	c #4F2B28",
"C 	c #549B68",
"D 	c #4D7952",
"E 	c #743A19",
"F 	c #EE8716",
"G 	c #BD6310",
"H 	c #A68781",
"I 	c #9B9DAB",
"J 	c #9B9DAA",
"K 	c #9193A1",
"L 	c #AA867E",
"M 	c #C26F11",
"N 	c #ED9F15",
"O 	c #ED9F14",
"P 	c #ED9F13",
"Q 	c #EC9F13",
"R 	c #EB9D17",
"S 	c #B45D06",
"T 	c #A29295",
"U 	c #9C9DAA",
"V 	c #9395A3",
"W 	c #6A6C7A",
"X 	c #999BA9",
"Y 	c #AC7A66",
"Z 	c #CC6D13",
"` 	c #E58320",
" .	c #42080A",
"..	c #4F8B5D",
"+.	c #4E7952",
"@.	c #7F5639",
"#.	c #F5BE69",
"$.	c #BE7128",
"%.	c #CFB9AF",
"&.	c #CFCED4",
"*.	c #8D8F9D",
"=.	c #9899A7",
"-.	c #AA867D",
";.	c #C5792E",
">.	c #F6C369",
",.	c #F7C368",
"'.	c #F6C469",
").	c #EEA72B",
"!.	c #ED9F01",
"~.	c #ED9E06",
"{.	c #B65D01",
"].	c #D9CDC7",
"^.	c #C3C3C9",
"/.	c #999AA8",
"(.	c #8D8F9C",
"_.	c #AC7966",
":.	c #CF8B41",
"<.	c #EFB86A",
"[.	c #450207",
"}.	c #4F8A5E",
"|.	c #764C36",
"1.	c #E2AF66",
"2.	c #BB6B25",
"3.	c #DFCBC0",
"4.	c #E2E2E5",
"5.	c #C8C9CF",
"6.	c #A7A9B4",
"7.	c #C07229",
"8.	c #E3AF66",
"9.	c #E4AF65",
"0.	c #E4B065",
"a.	c #E4B066",
"b.	c #DB932C",
"c.	c #DA8906",
"d.	c #D9880B",
"e.	c #ECE2DA",
"f.	c #D2D2D7",
"g.	c #A6A6B2",
"h.	c #C8C9CE",
"i.	c #9E9FAE",
"j.	c #AC7965",
"k.	c #C7833D",
"l.	c #DCAA66",
"m.	c #5E9C6E",
"n.	c #5B7859",
"o.	c #662E19",
"p.	c #BA6C23",
"q.	c #B55C0B",
"r.	c #DFCBBF",
"s.	c #E4E4E8",
"t.	c #A7A8B3",
"u.	c #F9F8FA",
"v.	c #BFC0C7",
"w.	c #B18E84",
"x.	c #B8610A",
"y.	c #BD6E21",
"z.	c #BE6D21",
"A.	c #BD6811",
"B.	c #BD6602",
"C.	c #BC6502",
"D.	c #D6D6DA",
"E.	c #BBBCC5",
"F.	c #F8F8FA",
"G.	c #ABACB7",
"H.	c #B27F6C",
"I.	c #B76114",
"J.	c #B56827",
"K.	c #440207",
"L.	c #5F8A64",
"M.	c #5B9C6C",
"N.	c #585C48",
"O.	c #450309",
"P.	c #835E46",
"Q.	c #FDD181",
"R.	c #C07732",
"S.	c #F7F7FA",
"T.	c #DFC8BC",
"U.	c #C67E37",
"V.	c #FDD382",
"W.	c #FED380",
"X.	c #FDD381",
"Y.	c #FED281",
"Z.	c #F3B64C",
"`.	c #EC9D04",
" +	c #F8F8F9",
".+	c #F8F9FB",
"++	c #D0AD9A",
"@+	c #D39653",
"#+	c #F8CC82",
"$+	c #440309",
"%+	c #637D5F",
"&+	c #549B67",
"*+	c #464531",
"=+	c #877F86",
"-+	c #7C6F77",
";+	c #7A4121",
">+	c #EF9832",
",+	c #BE6715",
"'+	c #C37114",
")+	c #EFAB31",
"!+	c #F0AC35",
"~+	c #F0AC34",
"{+	c #F0AB30",
"]+	c #F0AB31",
"^+	c #EEA31A",
"/+	c #CD761F",
"(+	c #E89437",
"_+	c #89808A",
":+	c #797376",
"<+	c #4C6145",
"[+	c #549A66",
"}+	c #420003",
"|+	c #BCB5BB",
"1+	c #ADA5AB",
"2+	c #783811",
"3+	c #EE8504",
"4+	c #BE6208",
"5+	c #DFC8BB",
"6+	c #C26D04",
"7+	c #EDA002",
"8+	c #EDA100",
"9+	c #EDA001",
"0+	c #EC9E04",
"a+	c #CC6E06",
"b+	c #E68316",
"c+	c #450307",
"d+	c #C3BFC4",
"e+	c #9F979B",
"f+	c #454830",
"g+	c #420002",
"h+	c #CFC8CC",
"i+	c #BDB7BA",
"j+	c #EF8504",
"k+	c #BE6307",
"l+	c #D6C0B6",
"m+	c #EEEEF1",
"n+	c #E9E9ED",
"o+	c #F4F4F7",
"p+	c #C46F0C",
"q+	c #ED9C04",
"r+	c #ED9C03",
"s+	c #EE9A02",
"t+	c #ED9905",
"u+	c #DFD5CF",
"v+	c #F1F0F4",
"w+	c #F5F5F7",
"x+	c #F7F7F9",
"y+	c #D0AD99",
"z+	c #E78316",
"A+	c #D6D2D6",
"B+	c #AEA5A8",
"C+	c #410003",
"D+	c #8D8691",
"E+	c #857B84",
"F+	c #EF8503",
"G+	c #A68881",
"H+	c #BCBEC6",
"I+	c #F8F8FB",
"J+	c #9C9EAB",
"K+	c #E5E5E9",
"L+	c #E0C9BC",
"M+	c #C26807",
"N+	c #F08D12",
"O+	c #EE8807",
"P+	c #EE8601",
"Q+	c #EC8505",
"R+	c #A39294",
"S+	c #CFCFD6",
"T+	c #E9E8ED",
"U+	c #F4F5F7",
"V+	c #CC6E05",
"W+	c #440308",
"X+	c #928E9A",
"Y+	c #7A6F79",
"Z+	c #549A67",
"`+	c #857B85",
" @	c #BD6306",
".@	c #9D9FAC",
"+@	c #A0A1AE",
"@@	c #E4E5E9",
"#@	c #C26808",
"$@	c #EF8604",
"%@	c #EE8702",
"&@	c #9FA0AD",
"*@	c #F5F5F8",
"=@	c #D0AE99",
"-@	c #507C55",
";@	c #746E6C",
">@	c #664D53",
",@	c #5A2112",
"'@	c #9F5415",
")@	c #823D10",
"!@	c #928185",
"~@	c #BCBDC6",
"{@	c #AE9F9D",
"]@	c #843F0E",
"^@	c #A05415",
"/@	c #9F5513",
"(@	c #9D5414",
"_@	c #7E380B",
":@	c #989098",
"<@	c #C4C6CD",
"[@	c #9F8782",
"}@	c #8B4411",
"|@	c #9A531A",
"1@	c #450208",
"2@	c #6E5960",
"3@	c #707569",
"4@	c #52845B",
"5@	c #647E61",
"6@	c #575343",
"7@	c #5A2111",
"8@	c #984E0C",
"9@	c #7F3A0A",
"0@	c #907E82",
"a@	c #803B0D",
"b@	c #9A5210",
"c@	c #9B5110",
"d@	c #9B510F",
"e@	c #995010",
"f@	c #7B340B",
"g@	c #99909A",
"h@	c #8C6E6C",
"i@	c #88410F",
"j@	c #964F15",
"k@	c #5C5F4B",
"l@	c #658C69",
"m@	c #4F7952",
"n@	c #763815",
"o@	c #EB8307",
"p@	c #BF6407",
"q@	c #A88882",
"r@	c #A7877F",
"s@	c #C06406",
"t@	c #EF8602",
"u@	c #EC8406",
"v@	c #EC8405",
"w@	c #EF8603",
"x@	c #ED8506",
"y@	c #B35A04",
"z@	c #9A9CAA",
"A@	c #9B9CAC",
"B@	c #AD7965",
"C@	c #CA6C08",
"D@	c #E38119",
"E@	c #642609",
"F@	c #A98A83",
"G@	c #9294A1",
"H@	c #A7867F",
"I@	c #C16305",
"J@	c #EF8601",
"K@	c #DD7904",
"L@	c #B35802",
"M@	c #B35803",
"N@	c #B45803",
"O@	c #B35904",
"P@	c #B45802",
"Q@	c #E98305",
"R@	c #B35A03",
"S@	c #A19294",
"T@	c #989AAA",
"U@	c #B35902",
"V@	c #AF570F",
"W@	c #508B5D",
"X@	c #5A6C51",
"Y@	c #95692B",
"Z@	c #D88D19",
"`@	c #E3920C",
" #	c #BE680B",
".#	c #946F65",
"+#	c #C06405",
"@#	c #EF8502",
"##	c #DC7903",
"$#	c #AF5C15",
"%#	c #ECE0D5",
"&#	c #EDE0D9",
"*#	c #D1C2BD",
"=#	c #A5887F",
"-#	c #B45A03",
";#	c #857374",
">#	c #898B99",
",#	c #767887",
"'#	c #A0674D",
")#	c #C8740B",
"!#	c #E1920C",
"~#	c #D58C1B",
"{#	c #775D35",
"]#	c #618361",
"^#	c #5D5D4A",
"/#	c #A5670B",
"(#	c #E99A05",
"_#	c #D58408",
":#	c #BB6406",
"<#	c #8F665B",
"[#	c #747684",
"}#	c #878997",
"|#	c #818391",
"1#	c #9C786F",
"2#	c #B96004",
"3#	c #D67405",
"4#	c #D57404",
"5#	c #D57405",
"6#	c #CB6C06",
"7#	c #AF5B15",
"8#	c #D6D5D7",
"9#	c #C2C2C3",
"0#	c #ADAEB4",
"a#	c #9E9397",
"b#	c #D27206",
"c#	c #D37307",
"d#	c #B35903",
"e#	c #7D6868",
"f#	c #797B8A",
"g#	c #838594",
"h#	c #6B6B7C",
"i#	c #9C6144",
"j#	c #C26D0A",
"k#	c #D78508",
"l#	c #EC9E03",
"m#	c #7F4C10",
"n#	c #657C5F",
"o#	c #985E0F",
"p#	c #D1870E",
"q#	c #A75404",
"r#	c #86625C",
"s#	c #866059",
"t#	c #A35006",
"u#	c #A45006",
"v#	c #9F5114",
"w#	c #9D9DA8",
"x#	c #4C4C51",
"y#	c #6A6B73",
"z#	c #9C9295",
"A#	c #A44F06",
"B#	c #79676B",
"C#	c #915B46",
"D#	c #A75508",
"E#	c #D9900E",
"F#	c #764611",
"G#	c #529E68",
"H#	c #5C5D49",
"I#	c #440001",
"J#	c #5F5460",
"K#	c #5D525E",
"L#	c #43090B",
"M#	c #9E9DAA",
"N#	c #4C4C52",
"O#	c #67616F",
"P#	c #5A434D",
"Q#	c #657D5F",
"R#	c #599868",
"S#	c #5A9467",
"T#	c #5B8760",
"U#	c #49191E",
"V#	c #4C2329",
"W#	c #4C2328",
"X#	c #49181C",
"Y#	c #43080B",
"Z#	c #9E9EAA",
"`#	c #4D4D53",
" $	c #6A6B75",
".$	c #918D99",
"+$	c #4D1D21",
"@$	c #4E2326",
"#$	c #4E2226",
"$$	c #491012",
"%$	c #4D2623",
"&$	c #60986C",
"*$	c #5B9467",
"=$	c #5A9A6A",
"-$	c #528E5F",
";$	c #883E0A",
">$	c #92450A",
",$	c #92450B",
"'$	c #91450C",
")$	c #A87C6C",
"!$	c #915736",
"~$	c #97624A",
"{$	c #A67261",
"]$	c #924609",
"^$	c #7B3508",
"/$	c #4E2A27",
"($	c #B65F05",
"_$	c #BB5F03",
":$	c #AD5503",
"<$	c #9E4C06",
"[$	c #9D4C05",
"}$	c #9E4C05",
"|$	c #9D4C06",
"1$	c #B15803",
"2$	c #C06203",
"3$	c #A25204",
"4$	c #DC7C05",
"5$	c #CE6E02",
"6$	c #9C4A04",
"7$	c #AF5607",
"8$	c #DA7703",
"9$	c #C36B04",
"0$	c #DD7C05",
"a$	c #AF5608",
"b$	c #DB7803",
"c$	c #C36B03",
"d$	c #B0580E",
"e$	c #DA7803",
"f$	c #C36C04",
"g$	c #B1580E",
"h$	c #DA7802",
"i$	c #C26B04",
"j$	c #B05810",
"k$	c #420102",
"l$	c #AF5709",
"m$	c #430102",
"n$	c #8C3D04",
"o$	c #8C3E03",
"p$	c #8C3D03",
"q$	c #8C3C02",
"r$	c #8D3C03",
"s$	c #813708",
"t$	c #DA7702",
"u$	c #9C4A03",
"v$	c #984402",
"w$	c #994500",
"x$	c #994401",
"y$	c #9A4301",
"z$	c #9A4400",
"A$	c #8D3D03",
"B$	c #AF5507",
"C$	c #DD7B05",
"D$	c #994402",
"E$	c #9A4300",
"F$	c #9A4401",
"G$	c #9C4B04",
"H$	c #9A4501",
"I$	c #994501",
"J$	c #994301",
"K$	c #430002",
"L$	c #B05607",
"M$	c #EC8703",
"N$	c #E98507",
"O$	c #E4810B",
"P$	c #EA8404",
"Q$	c #E98404",
"R$	c #EA8506",
"S$	c #EA8606",
"T$	c #E98403",
"U$	c #E88305",
"V$	c #EB8404",
"W$	c #ED8602",
"X$	c #4D2A27",
"Y$	c #430001",
"Z$	c #924C10",
"`$	c #9D530E",
" %	c #9D530D",
".%	c #9E540F",
"+%	c #9F5612",
"@%	c #9F5613",
"#%	c #A05716",
"$%	c #9E530E",
"%%	c #9E530F",
"&%	c #84420C",
"*%	c #642306",
"=%	c #6B2807",
"-%	c #6A2706",
";%	c #5C1C07",
">%	c #4C0D05",
",%	c #6B2607",
"'%	c #6B2806",
")%	c #6B2707",
"!%	c #68290C",
"~%	c #725D63",
"{%	c #472B2E",
"]%	c #563E42",
"^%	c #6F5759",
"/%	c #692609",
"(%	c #632107",
"_%	c #5D1D05",
":%	c #8F3E04",
"<%	c #7D3406",
"[%	c #5D1E09",
"}%	c #95470E",
"|%	c #9E9DA8",
"1%	c #4F4F55",
"2%	c #6C6B75",
"3%	c #9C9196",
"4%	c #964405",
"5%	c #8D3D07",
"6%	c #803504",
"7%	c #8F3E03",
"8%	c #7D3405",
"9%	c #9C9CA9",
"0%	c #9C9098",
"a%	c #994503",
"b%	c #98604A",
"c%	c #97604E",
"d%	c #97604F",
"e%	c #975B43",
"f%	c #8D3D06",
"g%	c #8C3D06",
"h%	c #518E5F",
"i%	c #7B3407",
"j%	c #5C1F09",
"k%	c #994502",
"l%	c #984501",
"m%	c #994602",
"n%	c #9A4602",
"o%	c #964307",
"p%	c #8C3D08",
"q%	c #803505",
"r%	c #529B67",
"s%	c #5E9669",
"t%	c #573D2E",
"u%	c #521307",
"v%	c #4C0C05",
"w%	c #470402",
"x%	c #531307",
"y%	c #521306",
"z%	c #521407",
"A%	c #521207",
"B%	c #501005",
"C%	c #5A5F44",
"D%	c #5E976A",
"E%	c #527F57",
"F%	c #4E7951",
"G%	c #4D7951",
"H%	c #50875A",
"      . . . . . . . . . . . . . . . . . . . . . . . . . . . . . . . + + @ . . . . . . . .       ",
"      . . . . . . . . # $ $ % . . . . . . . . . . . . . . . . . . & $ * = . . . . . . . .       ",
"      . . . . . . - ; > , ' ) ! ~ @ . . . . . . . . . . . . { ] ^ / ' ( _ ^ : . . . . . .       ",
"      . . . . < [ } | 1 2 3 4 5 6 7 8 9 9 9 9 9 9 9 9 9 9 9 0 a b c d e f g h i . . . . .       ",
"      . . . j k l m n 2 o 3 p q r m r r r r r s s s s s s t t t u v w x y z A B C @ . . .       ",
"      . . . D E F G H I J 3 K L M N O P P P O P P P Q Q P O R S T U V W X Y Z `  .... . .       ",
"      . . . +.@.#.$.%.&.J *.=.-.;.>.,.,.,.,.'.).!.!.!.!.!.!.~.{.].^./.(.I _.:.<.[.}.. . .       ",
"      . . . +.|.1.2.3.4.J 5.6.-.7.8.9.0.0.9.a.b.c.c.c.c.c.c.d.{.e.f.g.h.i.j.k.l.m ... . .       ",
"      . . m.n.o.p.q.r.s.t.u.v.w.x.y.z.z.z.z.z.z.z.z.z.z.A.B.C.{.e.D.E.F.G.H.I.J.K.L.M.. .       ",
"      . . N.O.P.Q.R.r.S.u.F.F.T.U.V.W.X.W.W.W.W.W.W.W.Y.Z.!.`.{.e. +.+F.F.++@+#+O.$+%+. .       ",
"      &+*+=+-+;+>+,+r.F.F.F.F.T.'+)+!+~+{+{+{+{+{+{+{+]+^+!.`.{.e. +F.F. +++/+(+[._+:+<+.       ",
"      [+}+|+1+2+3+4+3.F.F.F.F.5+6+7+8+9+!.!.!.!.!.!.!.!.!.!.0+{.e. +F.F. +++a+b+c+d+e+f+.       ",
"      [+g+h+i+2+j+k+l+m+F.n+o+T.p+q+r+s+s+s+s+s+s+s+s+s+s+s+t+{.u+v+w+n+x+y+a+z+c+A+B+f+.       ",
"      [+C+D+E+2+F+k+G+H+I+J+K+L+M+N+O+P+P+P+P+P+P+P+P+P+P+P+Q+{.R+S+T+J U+y+V+z+W+X+Y+f+.       ",
"      Z+g+D+`+2+F+ @G+.@+@J+@@T.#@$@%@P+P+P+P+P+P+P+P+P+P+P+Q+{.R+.@&@J *@=@a+b+K.X+Y+f+.       ",
"      j -@;@>@,@'@)@!@J+J+J+~@{@]@^@/@/@/@/@/@/@/@/@/@/@/@/@(@_@:@J J J <@[@}@|@1@2@3@4@.       ",
"      . . 5@6@7@8@9@!@J+J+J+J+0@a@b@c@c@c@c@d@d@c@c@c@d@c@c@e@f@g@J J J o h@i@j@1@k@l@. .       ",
"      . . . m@n@o@p@q@J+J+X I r@s@t@t@t@3+u@u@u@u@v@u@w@t@t@x@y@T J I z@A@B@C@D@[.... . .       ",
"      . . . +.E@{.{.F@J+J+3 G@H@I@J@P+P+K@L@M@M@N@O@P@Q@P+P+Q+R@S@J V 3 T@j.U@V@[.W@. . .       ",
"      . . X@Y@Z@`@ #.#v J+3 G@H@+#@#P+P+##$#%#&#*#=#L@Q@P+P+Q+-#;#>#w 3 ,#'#)#!#~#{#]#. .       ",
"      . . ^#/#(#_#:#<#[#}#3 |#1#2#3#4#5#6#7#8#9#0#a#P@b#4#5#c#d#e#f#g#3 h#i#j#k#l#m#n#. .       ",
"      . . ^#o#p#q#q#r#3 3 3 3 s#t#u#u#u#u#v#w#x#y#z#t#u#u#u#u#A#B#3 3 3 e C#u#D#E#F#n#. .       ",
"      . G#H#I#I#I#I#J#3 3 3 3 K#I#I#I#I#I#L#M#N#y#X+I#I#I#I#I#I#O#3 3 3 W P#I#I#I#I#Q#. .       ",
"      . . R#S#T#I#I#U#V#W#W#W#X#I#I#I#I#I#Y#Z#`# $.$I#I#I#I#I#I#+$@$#$#$#$$$I#%$&$*$=$. .       ",
"      . . . . -$I#;$>$,$,$,$,$,$,$,$,$,$,$'$)$!$~${$,$,$,$,$,$,$,$,$,$,$>$]$^$/$. . . . .       ",
"      . . . . -$I#($_$:$<$[$[$[$[$[$[$[$[$}$<$<$<$[$[$[$[$[$[$[$[$[$|$<$1$2$3$/$. . . . .       ",
"      . . . . -$I#4$5$6$g+g+g+g+g+g+g+g+g+g+g+g+g+g+g+g+g+g+g+g+g+g+g+g+7$8$9$/$. . . . .       ",
"      . . . . -$I#0$5$6$g+g+g+g+g+g+g+g+g+g+g+g+g+g+g+g+g+g+g+g+g+g+g+g+a$b$c$/$. . . . .       ",
"      . . . . -$I#0$5$6$g+g+g+g+g+g+g+g+g+g+g+g+g+g+g+g+g+g+g+g+g+g+g+g+d$e$f$/$. . . . .       ",
"      . . . . -$I#0$5$6$g+g+g+g+g+g+g+g+g+g+g+g+g+g+g+g+g+g+g+g+g+g+g+g+g$h$i$/$. . . . .       ",
"      . . . . -$I#0$5$6$g+g+g+g+g+g+g+g+g+g+g+g+g+g+g+g+g+g+g+g+g+g+g+g+j$8$c$/$. . . . .       ",
"      . . . . -$I#0$5$6$g+g+g+g+g+g+g+g+g+g+g+g+g+g+g+g+g+g+g+g+g+g+g+k$l$8$c$/$. . . . .       ",
"      . . . . -$I#0$5$6$m$n$n$n$o$p$p$p$p$p$p$p$p$p$p$p$p$o$o$o$q$r$s$g+a$t$c$/$. . . . .       ",
"      . . . . -$I#0$5$u$m$v$w$w$w$w$w$w$w$w$w$w$w$w$w$w$w$w$x$x$y$z$A$g+B$t$c$/$. . . . .       ",
"      . . . . -$I#C$5$6$m$D$w$w$w$w$w$w$w$w$w$w$w$w$w$w$w$x$E$F$w$w$A$g+7$8$c$/$. . . . .       ",
"      . . . . -$I#C$5$G$m$D$H$H$H$H$H$H$H$H$H$H$H$H$I$x$J$x$x$F$H$H$A$K$L$8$9$/$. . . . .       ",
"      . . . . -$I#C$M$N$O$P$P$P$Q$Q$P$P$P$Q$Q$P$Q$P$P$R$S$R$P$Q$T$P$U$O$V$W$c$X$. . . . .       ",
"      . . . . -$Y$Z$`$ % %`$`$`$`$`$`$`$`$`$`$`$`$`$.%+%@%#%`$`$`$`$`$ %$%%%&%/$. . . . .       ",
"      . . . . -$I#*%=%=%=%-%=%;%>%,%'%=%)%!%~%{%]%^%-%)%=%=%/%I#(%=%=%=%=%-%_%/$. . . . .       ",
"      . . . . -$I#:%w$w$w$w$w$<%[%I$w$w$w$}%|%1%2%3%w$w$w$w$4%I#5%w$w$w$w$x$6%/$. . . . .       ",
"      . . . . -$I#7%w$w$w$w$w$8%[%I$w$w$w$}%|%9%9%0%w$w$w$w$4%I#5%w$w$w$w$I$6%/$. . . . .       ",
"      . . . . -$I#7%w$w$w$w$w$8%[%I$w$w$w$a%b%c%d%e%w$w$w$w$4%I#f%w$w$w$w$I$6%/$. . . . .       ",
"      . . . . -$I#7%w$w$w$w$w$8%[%I$w$w$w$w$w$x$x$w$w$w$w$w$4%I#f%w$w$w$w$I$6%/$. . . . .       ",
"      . . . . -$I#7%w$w$w$w$w$8%[%I$w$w$w$w$w$w$w$w$w$w$w$w$4%I#g%w$w$w$w$I$6%/$. . . . .       ",
"      . . . . h%I#:%x$x$x$x$x$i%j%k%l%m%n%x$x$x$x$x$x$x$x$x$o%I#p%x$x$x$x$x$q%/$. . . . .       ",
"      . . . . r%s%t%u%u%u%u%u%v%w%x%y%z%z%u%u%u%u%u%u%u%u%u%A%I#B%u%u%u%u%A%C%D%. . . . .       ",
"      . . . . . . E%F%F%F%F%F%F%G%G%F%F%F%F%F%F%F%F%F%F%F%F%G%G%G%F%F%F%F%F%H%. . . . . .       ",
"      . . . . . . . . . . . . . . . . . . . . . . . . . . . . . . . . . . . . . . . . . .       "};
