/* XPM */
static char * heart3_xpm[] = {
"48 48 29 1",
" 	c #509B66",
".	c #4F9C66",
"+	c #509C66",
"@	c #000000",
"#	c #509C67",
"$	c #F40809",
"%	c #F45244",
"&	c #F67E69",
"*	c #F41011",
"=	c #F68570",
"-	c #F7937C",
";	c #EE0F10",
">	c #F11111",
",	c #F41012",
"'	c #F21012",
")	c #F6957D",
"!	c #F7947D",
"~	c #F67D69",
"{	c #F7917A",
"]	c #F7927B",
"^	c #F6846F",
"/	c #F41213",
"(	c #F40F11",
"_	c #F40F10",
":	c #F11013",
"<	c #F51011",
"[	c #ED0F11",
"}	c #F21011",
"|	c #F31011",
"                                                ",
"                                                ",
"                                                ",
"                                                ",
"                                                ",
"                                                ",
"                                                ",
"                                                ",
"                                                ",
"                                                ",
"                                                ",
"                                                ",
"                                                ",
"                                                ",
"               ...        ....                  ",
"               +.......  .......                ",
"               .@@@@@@...@@@@@@.#               ",
"             ..@$$$$$$@.@$$$$$$@...             ",
"             .@$$%&&%$$@$$*****$@..             ",
"            ..@$%=--=%$;>,*****'@.              ",
"            ..@$&)--!&$********'@.              ",
"            ..@$%~{]^%$********'@.              ",
"            ..@$/%&&%*$********'@.              ",
"             .@$($$$$_*********'@.              ",
"             .@$***************:@.              ",
"             ..@$<************[$@.              ",
"               .@$}**********$$@..              ",
"               +.@$(*********$@.+               ",
"                +.@$|*******$@.                 ",
"                 ..@$****$$$@.                  ",
"                   .@$}$$$$@.                   ",
"                   +.@$$$$@.                    ",
"                    +.@@@@.+                    ",
"                     ......                     ",
"                                                ",
"                                                ",
"                                                ",
"                                                ",
"                                                ",
"                                                ",
"                                                ",
"                                                ",
"                                                ",
"                                                ",
"                                                ",
"                                                ",
"                                                ",
"                                                "};
