/* XPM */
static char * link_left_xpm[] = {
"48 48 639 2",
"  	c #509B66",
". 	c #519B66",
"+ 	c #529B66",
"@ 	c #6A925E",
"# 	c #908250",
"$ 	c #6F6943",
"% 	c #526A41",
"& 	c #2E8A45",
"* 	c #2F6F3D",
"= 	c #316D3C",
"- 	c #46A144",
"; 	c #49A344",
"> 	c #3B9644",
", 	c #2E8343",
"' 	c #4A975F",
") 	c #5F9963",
"! 	c #6B9860",
"~ 	c #719E65",
"{ 	c #8E9555",
"] 	c #AE8C3A",
"^ 	c #916123",
"/ 	c #67601F",
"( 	c #15882C",
"_ 	c #115415",
": 	c #144C0F",
"< 	c #40A329",
"[ 	c #41A329",
"} 	c #44A629",
"| 	c #319729",
"1 	c #147E29",
"2 	c #429256",
"3 	c #4B9861",
"4 	c #49965E",
"5 	c #4D9963",
"6 	c #509A66",
"7 	c #529A65",
"8 	c #808556",
"9 	c #A07446",
"0 	c #D9A759",
"a 	c #EDCF34",
"b 	c #FDFE05",
"c 	c #FEFE05",
"d 	c #C4E40E",
"e 	c #30A72A",
"f 	c #185B15",
"g 	c #104411",
"h 	c #46AD2D",
"i 	c #43A82B",
"j 	c #41A32A",
"k 	c #41A42A",
"l 	c #43A62A",
"m 	c #19822B",
"n 	c #11772C",
"o 	c #117C29",
"p 	c #439358",
"q 	c #4F9A65",
"r 	c #5E9963",
"s 	c #7C8659",
"t 	c #B5A93B",
"u 	c #D6C41E",
"v 	c #BD9148",
"w 	c #C49F3C",
"x 	c #CDB921",
"y 	c #EBCE2B",
"z 	c #D3C632",
"A 	c #99AA42",
"B 	c #4E8828",
"C 	c #22731A",
"D 	c #256C19",
"E 	c #348B22",
"F 	c #43A82A",
"G 	c #41A429",
"H 	c #42A429",
"I 	c #319629",
"J 	c #248B29",
"K 	c #0F7D2A",
"L 	c #2D743C",
"M 	c #3D7B4D",
"N 	c #6D965E",
"O 	c #A07544",
"P 	c #DAC81B",
"Q 	c #FFFF02",
"R 	c #A7813B",
"S 	c #9D7244",
"T 	c #9D7147",
"U 	c #D09E53",
"V 	c #E0AB55",
"W 	c #F2A957",
"X 	c #7EB039",
"Y 	c #37A024",
"Z 	c #08350A",
"` 	c #26711A",
" .	c #45AB2B",
"..	c #3FA128",
"+.	c #40A229",
"@.	c #3FA229",
"#.	c #45A729",
"$.	c #379B29",
"%.	c #107D2C",
"&.	c #0F5717",
"*.	c #1D5124",
"=.	c #4D9762",
"-.	c #8C8754",
";.	c #B08F3D",
">.	c #FBFC0D",
",.	c #C9B424",
"'.	c #A27940",
").	c #E3B353",
"!.	c #CA9C4A",
"~.	c #9A713A",
"{.	c #EDE310",
"].	c #E5DB15",
"^.	c #A97646",
"/.	c #5B9733",
"(.	c #289426",
"_.	c #083409",
":.	c #29761C",
"<.	c #49B42E",
"[.	c #44A92A",
"}.	c #44AB2B",
"|.	c #46AC2B",
"1.	c #1E8729",
"2.	c #107B29",
"3.	c #117A29",
"4.	c #157429",
"5.	c #114714",
"6.	c #3C7C4D",
"7.	c #7E754A",
"8.	c #A0792E",
"9.	c #D8BF28",
"0.	c #B2814E",
"a.	c #B8873D",
"b.	c #B78A4B",
"c.	c #B48E63",
"d.	c #F3EC11",
"e.	c #E7DE0E",
"f.	c #9F6E47",
"g.	c #94B126",
"h.	c #76BD18",
"i.	c #216518",
"j.	c #27731B",
"k.	c #2E801F",
"l.	c #2D7E1E",
"m.	c #2D7F1E",
"n.	c #2E7F1E",
"o.	c #157B27",
"p.	c #0E7A29",
"q.	c #107D2A",
"r.	c #137829",
"s.	c #0D440D",
"t.	c #397849",
"u.	c #61623F",
"v.	c #83571A",
"w.	c #FDFD0A",
"x.	c #F2D72F",
"y.	c #DEA95A",
"z.	c #6A3713",
"A.	c #936847",
"B.	c #E0C09E",
"C.	c #F9F41C",
"D.	c #E8DF0C",
"E.	c #9A6E49",
"F.	c #EAD714",
"G.	c #E9F902",
"H.	c #4DB42E",
"I.	c #27711B",
"J.	c #053309",
"K.	c #0A3B0B",
"L.	c #09390A",
"M.	c #093709",
"N.	c #0F6D22",
"O.	c #117E2A",
"P.	c #107928",
"Q.	c #107C2A",
"R.	c #137628",
"S.	c #0D410D",
"T.	c #3A784A",
"U.	c #539260",
"V.	c #6E8955",
"W.	c #B89936",
"X.	c #9E722F",
"Y.	c #8D582E",
"Z.	c #BE996F",
"`.	c #CAA77E",
" +	c #D4B28A",
".+	c #B99841",
"++	c #AE8A31",
"@+	c #986B4A",
"#+	c #E7D515",
"$+	c #E2F401",
"%+	c #12862A",
"&+	c #0F5F19",
"*+	c #0E3D0B",
"=+	c #107023",
"-+	c #107425",
";+	c #107F2B",
">+	c #107E2A",
",+	c #117928",
"'+	c #0F7225",
")+	c #1E652B",
"!+	c #2B6237",
"~+	c #4B9460",
"{+	c #5D9662",
"]+	c #958653",
"^+	c #6C5633",
"/+	c #57301A",
"(+	c #CFAD85",
"_+	c #DCBC93",
":+	c #DCBE95",
"<+	c #B48D63",
"[+	c #AE884A",
"}+	c #B59534",
"|+	c #DCC71D",
"1+	c #CECF14",
"2+	c #347C31",
"3+	c #1D6220",
"4+	c #0C4D12",
"5+	c #106E22",
"6+	c #107627",
"7+	c #0F7124",
"8+	c #0F6C22",
"9+	c #107527",
"0+	c #107A29",
"a+	c #11822C",
"b+	c #0F5F1B",
"c+	c #114013",
"d+	c #4A935F",
"e+	c #4F9965",
"f+	c #356B45",
"g+	c #0C0C0A",
"h+	c #C8AA85",
"i+	c #EED7AC",
"j+	c #FFFED0",
"k+	c #DEBC9D",
"l+	c #DDC367",
"m+	c #FFFF00",
"n+	c #BD9F30",
"o+	c #9A6F48",
"p+	c #BB8145",
"q+	c #5C8238",
"r+	c #06812B",
"s+	c #113E0C",
"t+	c #0F5316",
"u+	c #12872F",
"v+	c #0E4C12",
"w+	c #0D3F0B",
"x+	c #0E410B",
"y+	c #0F6A21",
"z+	c #10812C",
"A+	c #117D2A",
"B+	c #0F601B",
"C+	c #164919",
"D+	c #4B935F",
"E+	c #050403",
"F+	c #91643E",
"G+	c #7F6042",
"H+	c #4C4B3C",
"I+	c #CCB99F",
"J+	c #F9E387",
"K+	c #C0A42E",
"L+	c #976E41",
"M+	c #8E572C",
"N+	c #42531E",
"O+	c #005211",
"P+	c #0A651C",
"Q+	c #085E18",
"R+	c #075011",
"S+	c #0C480F",
"T+	c #0C390C",
"U+	c #041504",
"V+	c #0B4010",
"W+	c #0F5C19",
"X+	c #12832C",
"Y+	c #0A4B18",
"Z+	c #0E2411",
"`+	c #4B925F",
" @	c #4F9864",
".@	c #4D9663",
"+@	c #366643",
"@@	c #1E1913",
"#@	c #663F29",
"$@	c #482D21",
"%@	c #0E1113",
"&@	c #CCC2AA",
"*@	c #FFF29B",
"=@	c #F2EF00",
"-@	c #C2A432",
";@	c #9E7341",
">@	c #753D1D",
",@	c #47431B",
"'@	c #1F4E1B",
")@	c #2C893A",
"!@	c #297631",
"~@	c #264A1B",
"{@	c #134812",
"]@	c #0A330B",
"^@	c #051309",
"/@	c #092809",
"(@	c #0E450E",
"_@	c #127D29",
":@	c #083B13",
"<@	c #0A1E10",
"[@	c #4A915F",
"}@	c #4A8E5E",
"|@	c #0B2011",
"1@	c #78664D",
"2@	c #DDBD95",
"3@	c #2F4C91",
"4@	c #7C91BF",
"5@	c #FFFFFE",
"6@	c #FFEDCD",
"7@	c #E6CC9B",
"8@	c #A27A3C",
"9@	c #CE9D54",
"0@	c #D39D55",
"a@	c #763F1B",
"b@	c #A77D56",
"c@	c #D5B98F",
"d@	c #F0DCB2",
"e@	c #FAE6BD",
"f@	c #FEF1CA",
"g@	c #436C36",
"h@	c #013003",
"i@	c #010001",
"j@	c #0A310A",
"k@	c #0F4A0F",
"l@	c #0F440D",
"m@	c #072006",
"n@	c #498E5D",
"o@	c #020803",
"p@	c #79664D",
"q@	c #E4C39A",
"r@	c #2B4A92",
"s@	c #7B91C3",
"t@	c #FFFFFF",
"u@	c #FFF0D0",
"v@	c #DEC497",
"w@	c #7E4E2B",
"x@	c #D4B42E",
"y@	c #DEC628",
"z@	c #2E1405",
"A@	c #977B5E",
"B@	c #FBDCB0",
"C@	c #FCE5BE",
"D@	c #EED3A7",
"E@	c #D5B380",
"F@	c #354323",
"G@	c #1A3E23",
"H@	c #3A744B",
"I@	c #21482B",
"J@	c #072809",
"K@	c #10661E",
"L@	c #07300E",
"M@	c #78664E",
"N@	c #DFBF97",
"O@	c #2C4A8F",
"P@	c #7B90BF",
"Q@	c #FFF0CF",
"R@	c #D7BC91",
"S@	c #5E2718",
"T@	c #D8C80A",
"U@	c #E5E902",
"V@	c #000000",
"W@	c #817764",
"X@	c #FFF7CB",
"Y@	c #FAE6C0",
"Z@	c #D4B888",
"`@	c #9C7131",
" #	c #291C0F",
".#	c #285335",
"+#	c #2F603E",
"@#	c #020C04",
"##	c #14872F",
"$#	c #084016",
"%#	c #0D2314",
"&#	c #346340",
"*#	c #241F19",
"=#	c #BFA689",
"-#	c #E6CEAC",
";#	c #FFEDC9",
">#	c #FFF1C9",
",#	c #D9C197",
"'#	c #632D1B",
")#	c #D8C60E",
"!#	c #E2E604",
"~#	c #030000",
"{#	c #106A8B",
"]#	c #27D6FF",
"^#	c #B49965",
"/#	c #7E5D33",
"(#	c #030D08",
"_#	c #030203",
":#	c #265033",
"<#	c #2C5A3A",
"[#	c #010803",
"}#	c #125316",
"|#	c #072609",
"1#	c #4A905F",
"2#	c #509A65",
"3#	c #407E52",
"4#	c #2C5738",
"5#	c #877456",
"6#	c #BAA17D",
"7#	c #F2D7AC",
"8#	c #F3DAB0",
"9#	c #CDB187",
"0#	c #622C1B",
"a#	c #D8C60D",
"b#	c #E1E602",
"c#	c #040000",
"d#	c #00425B",
"e#	c #0386B1",
"f#	c #645434",
"g#	c #654A22",
"h#	c #493B1F",
"i#	c #555107",
"j#	c #556E34",
"k#	c #3C784E",
"l#	c #295536",
"m#	c #092E09",
"n#	c #20482B",
"o#	c #316440",
"p#	c #4C9461",
"q#	c #519965",
"r#	c #14301D",
"s#	c #534636",
"t#	c #EAC698",
"u#	c #DCBA91",
"v#	c #C49C72",
"w#	c #69321E",
"x#	c #D8C80C",
"y#	c #E0E400",
"z#	c #040302",
"A#	c #050301",
"B#	c #5A4922",
"C#	c #FEC964",
"D#	c #FBEF14",
"E#	c #E3EB33",
"F#	c #4C9361",
"G#	c #376F48",
"H#	c #4F9964",
"I#	c #498F5E",
"J#	c #42724C",
"K#	c #3C2D26",
"L#	c #40572C",
"M#	c #3A4C22",
"N#	c #120002",
"O#	c #B69333",
"P#	c #DBB83F",
"Q#	c #063513",
"R#	c #0F6D26",
"S#	c #09360B",
"T#	c #1E300D",
"U#	c #3C2E19",
"V#	c #74954E",
"W#	c #84B15E",
"X#	c #4E9864",
"Y#	c #448657",
"Z#	c #397249",
"`#	c #001504",
" $	c #06430F",
".$	c #043F0C",
"+$	c #001105",
"@$	c #806B36",
"#$	c #A88143",
"$$	c #1B0A06",
"%$	c #133E16",
"&$	c #0D6E25",
"*$	c #0F5715",
"=$	c #08330C",
"-$	c #010402",
";$	c #478A5A",
">$	c #072E12",
",$	c #168A2F",
"'$	c #137C2A",
")$	c #137E2B",
"!$	c #159030",
"~$	c #02290D",
"{$	c #100001",
"]$	c #884625",
"^$	c #3C1D10",
"/$	c #127829",
"($	c #0C541D",
"_$	c #030402",
":$	c #468859",
"<$	c #418053",
"[$	c #2E5C3B",
"}$	c #A59E12",
"|$	c #6A9411",
"1$	c #03772C",
"2$	c #11802A",
"3$	c #0C6A23",
"4$	c #072E10",
"5$	c #054514",
"6$	c #0B4F17",
"7$	c #346923",
"8$	c #172D10",
"9$	c #0F7B29",
"0$	c #0A541C",
"a$	c #468A5A",
"b$	c #346944",
"c$	c #090B02",
"d$	c #F5F60A",
"e$	c #A3CF13",
"f$	c #076B2A",
"g$	c #1D802A",
"h$	c #125B1F",
"i$	c #186028",
"j$	c #23913D",
"k$	c #1C903C",
"l$	c #0C3F1B",
"m$	c #147328",
"n$	c #10501C",
"o$	c #060404",
"p$	c #438356",
"q$	c #366C46",
"r$	c #020503",
"s$	c #0E7728",
"t$	c #396325",
"u$	c #79361F",
"v$	c #774022",
"w$	c #5A301B",
"x$	c #AEB0AF",
"y$	c #7B7C7C",
"z$	c #452D22",
"A$	c #4A2920",
"B$	c #4F2521",
"C$	c #130808",
"D$	c #2A5738",
"E$	c #030702",
"F$	c #1F8629",
"G$	c #3B8328",
"H$	c #606A23",
"I$	c #617426",
"J$	c #48551D",
"K$	c #776B68",
"L$	c #B4A29F",
"M$	c #B9A7A3",
"N$	c #524B49",
"O$	c #482420",
"P$	c #423722",
"Q$	c #315627",
"R$	c #0C1209",
"S$	c #275234",
"T$	c #040903",
"U$	c #439F2A",
"V$	c #44AD2B",
"W$	c #3AA729",
"X$	c #40B32B",
"Y$	c #2F8120",
"Z$	c #2B140C",
"`$	c #401C11",
" %	c #411C11",
".%	c #1C0C08",
"+%	c #000101",
"@%	c #471D1C",
"#%	c #344A25",
"$%	c #0D8E2E",
"%%	c #041E0A",
"&%	c #4D9562",
"*%	c #478B5B",
"=%	c #15301B",
"-%	c #215315",
";%	c #4BB62D",
">%	c #21922D",
",%	c #126521",
"'%	c #492712",
")%	c #6D3A1C",
"!%	c #713F1F",
"~%	c #321A0E",
"{%	c #000100",
"]%	c #469829",
"^%	c #306F1E",
"/%	c #000B05",
"(%	c #407D52",
"_%	c #4C9462",
":%	c #28552E",
"<%	c #337C1F",
"[%	c #125F1F",
"}%	c #084217",
"|%	c #6C5037",
"1%	c #A07550",
"2%	c #996A43",
"3%	c #442E1E",
"4%	c #2F761E",
"5%	c #2C672B",
"6%	c #2D5C3B",
"7%	c #407F53",
"8%	c #030D05",
"9%	c #020202",
"0%	c #B3AC93",
"a%	c #FFFED2",
"b%	c #F4D0A1",
"c%	c #6D5D49",
"d%	c #040303",
"e%	c #30613E",
"f%	c #32452B",
"g%	c #5C351A",
"h%	c #3B2319",
"i%	c #351E19",
"j%	c #381D17",
"k%	c #43382E",
"l%	c #474437",
"m%	c #453A2C",
"n%	c #1E1914",
"o%	c #07180C",
"p%	c #3F7C51",
"q%	c #4E9763",
"r%	c #132E1B",
"s%	c #301B0E",
"t%	c #814A24",
"u%	c #583121",
"v%	c #4F2C21",
"w%	c #512D23",
"x%	c #18140E",
"y%	c #020402",
"z%	c #173520",
"A%	c #311C0E",
"B%	c #834B25",
"C%	c #7C4723",
"D%	c #6F4023",
"E%	c #512E25",
"F%	c #1D110D",
"G%	c #041008",
"H%	c #39724A",
"I%	c #417F53",
"J%	c #36603E",
"K%	c #321D0F",
"L%	c #312011",
"M%	c #2C1B0F",
"N%	c #20120F",
"O%	c #356642",
"P%	c #3B754C",
"Q%	c #478C5C",
"R%	c #132C1A",
"S%	c #122B19",
"T%	c #081A0D",
"U%	c #448557",
"V%	c #4E9663",
"                                                                                                ",
"                                                                                                ",
"                                                                                                ",
"                                                                                                ",
"                                . . .                                                           ",
"                          . . + .                                                               ",
"                            .   @ # $ % & * = - - - ; > , '                                     ",
"                      .   ) ! ~ { ] ^ / ( _ : < [ < } | 1 2 3 4 5 6                             ",
"                    . 7   8 9 0 a b c d e f g h i j k k l m n o p   q                           ",
"                  .   r s t u v w x y z A B C D E F < G H I J K L M q                           ",
"                  .   N O P Q R S T U V W X Y Z `  ...+.@.#.$.%.&.*.=.q                         ",
"                .   -.;.>.,.'.).!.~.{.].^./.(._.:.<.[.}.|.1.2.2.3.4.5.6.  q                     ",
"                .   7.8.c 9.0.a.b.c.d.e.f.g.h.i.j.k.l.m.n.o.p.2.q.r.s.t.  q                     ",
"                    u.v.w.x.y.z.A.B.C.D.E.F.G.H.I.J.K.L.M.N.O.P.Q.R.S.T.  q                     ",
"                    U.V.W.X.Y.Z.`. +.+++@+#+$+%+&+*+=+-+=+2.;+>+Q.,+'+)+!+~+                    ",
"                  .   {+]+^+/+(+_+:+<+[+}+|+1+2+3+4+5+6+>+7+N.8+9+0+a+b+c+d+                    ",
"                      e+  f+g+h+i+j+k+l+m+n+o+p+q+r+s+t+u+v+w+x+y+z+A+B+C+D+                    ",
"                      q   f+E+F+G+H+I+J+m+K+L+M+N+O+P+Q+R+S+T+U+V+W+X+Y+Z+`+  6                 ",
"                       @.@+@@@#@$@%@&@*@=@-@;@>@,@'@)@!@~@{@]@^@/@(@_@:@<@[@  6                 ",
"                  6   }@|@1@2@3@4@5@6@7@8@9@0@a@b@c@d@e@f@g@h@i@j@k@l@m@<@[@  6                 ",
"                  6   n@o@p@q@r@s@t@u@v@w@x@y@z@A@B@C@D@E@F@G@H@I@J@K@L@<@[@  6                 ",
"                  6   }@|@M@N@O@P@t@Q@R@S@T@U@V@W@X@Y@Z@`@ #.#  +#@###$#%#[@  6                 ",
"                       @.@&#*#=#-#;#>#,#'#)#!#~#{#]#^#/#(#_#:#  <#[#}#|#^@1#  6                 ",
"                      2#  3#4#5#6#7#8#9#0#a#b#c#d#e#f#g#h#i#j#  k#l#m#n#o#p#                    ",
"                        2#  q#r#s#t#u#v#w#x#y#z#V@A#V@B#C#D#E#    F#V@G#  q                     ",
"                            H#I#J#K#L#M#N#O#P#V@Q#R#S#T#U#V#W#6   X#Y#[@  6                     ",
"                            H#`+Z#`# $.$+$@$#$$$%$&$*$=$-$;$  2#                                ",
"                            H#r#>$,$'$)$!$~${$]$^$V@/$($_$:$  6     2#                          ",
"                      2#  <$[$}$|$1$2$3$4$5$6$7$8$V@9$0$-$a$  2#                                ",
"                      q   b$c$d$e$f$g$h$V@i$j$k$l$V@m$n$o$p$H#6                                 ",
"                      q   q$r$s$t$u$v$w$V@x$t@t@y$V@z$A$B$C$D$                                  ",
"                      q   f+E$F$G$H$I$J$V@K$L$M$N$V@O$P$Q$R$S$                                  ",
"                      q   q$T$U$V$W$X$Y$V@Z$`$ %.%+%@%#%$%%%l#                                  ",
"                          &%*%=%-%;%>%,%V@'%)%!%~%{%]%^%/%(%_%6                                 ",
"                            e+o#:%<%[%}%V@|%1%2%3%-$4%5%6%I#  6                                 ",
"                            q   7%V@8%9%V@0%a%b%c%^@d%e%  q 6                                   ",
"                             @+#f%g%h%i%j%k%l%m%n%o%p%n@                                        ",
"                            q%r%s%t%u%v%w%x%^@y%z%:#p#                                          ",
"                            q%r%A%B%C%D%E%F%G%_#H%  e+6                                         ",
"                            H#I%J%K%L%M%N%O%p%P%Q%  6                                           ",
"                            2#  <$8%R%S%T%U%  2#                                                ",
"                              2#H#V%q%V%V%H#2#q 6                                               ",
"                                                                                                ",
"                                                                                                ",
"                                                                                                ",
"                                                                                                ",
"                                                                                                ",
"                                                                                                "};
