/* XPM */
static char * link_back_xpm[] = {
"48 48 626 2",
"  	c #509B66",
". 	c #519B66",
"+ 	c #509A66",
"@ 	c #519763",
"# 	c #59915F",
"$ 	c #639560",
"% 	c #699960",
"& 	c #689860",
"* 	c #669761",
"= 	c #649661",
"- 	c #59915E",
"; 	c #579561",
"> 	c #559D65",
", 	c #539B65",
"' 	c #529B66",
") 	c #509A65",
"! 	c #5A8A5A",
"~ 	c #67361A",
"{ 	c #8B603A",
"] 	c #9F754A",
"^ 	c #9A6F47",
"/ 	c #A07845",
"( 	c #A17C42",
"_ 	c #734220",
": 	c #626D45",
"< 	c #529C66",
"[ 	c #3E7B50",
"} 	c #4C643E",
"| 	c #B27A3F",
"1 	c #C8AA28",
"2 	c #D8C61D",
"3 	c #DAC71C",
"4 	c #BD9D31",
"5 	c #A27543",
"6 	c #8E5E35",
"7 	c #9C8838",
"8 	c #C4D648",
"9 	c #94964F",
"0 	c #778D5B",
"a 	c #4F9965",
"b 	c #4F9863",
"c 	c #22482D",
"d 	c #3F3617",
"e 	c #E9B75D",
"f 	c #F0E41C",
"g 	c #FCFF02",
"h 	c #FFFF02",
"i 	c #CCBB22",
"j 	c #9A7344",
"k 	c #9F7945",
"l 	c #C3AC2B",
"m 	c #FEFE05",
"n 	c #B49336",
"o 	c #927F4E",
"p 	c #5C9E64",
"q 	c #549A65",
"r 	c #418054",
"s 	c #091C0F",
"t 	c #378527",
"u 	c #47A92C",
"v 	c #50A92E",
"w 	c #52AE2A",
"x 	c #54B128",
"y 	c #50AC2B",
"z 	c #4FA82D",
"A 	c #41A12F",
"B 	c #8BC61E",
"C 	c #FDFE07",
"D 	c #B19234",
"E 	c #977246",
"F 	c #9B7447",
"G 	c #6F915E",
"H 	c #4F9964",
"I 	c #438355",
"J 	c #336740",
"K 	c #1A4211",
"L 	c #2B761E",
"M 	c #2E841F",
"N 	c #2A7E1D",
"O 	c #2A7E1F",
"P 	c #297D1F",
"Q 	c #2A7F1E",
"R 	c #2D821D",
"S 	c #227A1F",
"T 	c #5CA01A",
"U 	c #B9E00F",
"V 	c #B59A3E",
"W 	c #BB9043",
"X 	c #C6AD29",
"Y 	c #878948",
"Z 	c #568658",
"` 	c #4E9864",
" .	c #142F1C",
"..	c #1C4612",
"+.	c #4FC533",
"@.	c #124C10",
"#.	c #053209",
"$.	c #09390B",
"%.	c #09380A",
"&.	c #08380A",
"*.	c #053008",
"=.	c #1B6018",
"-.	c #34AB2D",
";.	c #C1A74F",
">.	c #F5C343",
",.	c #9F7C15",
"'.	c #65482F",
").	c #559B65",
"!.	c #3C784E",
"~.	c #1F432A",
"{.	c #156829",
"].	c #115F1D",
"^.	c #134A0F",
"/.	c #318521",
"(.	c #399525",
"_.	c #379123",
":.	c #379224",
"<.	c #399625",
"[.	c #2C7A1D",
"}.	c #154B0E",
"|.	c #34812E",
"1.	c #3D772A",
"2.	c #343603",
"3.	c #7C5F29",
"4.	c #9B7A45",
"5.	c #519A65",
"6.	c #509965",
"7.	c #346944",
"8.	c #010602",
"9.	c #127026",
"0.	c #13691E",
"a.	c #154F10",
"b.	c #3B9926",
"c.	c #45AC2B",
"d.	c #43A82A",
"e.	c #43A72A",
"f.	c #47AE2C",
"g.	c #328921",
"h.	c #134B0F",
"i.	c #0B6E20",
"j.	c #06551C",
"k.	c #000000",
"l.	c #635E38",
"m.	c #9D9155",
"n.	c #519965",
"o.	c #4F9A65",
"p.	c #366C46",
"q.	c #010401",
"r.	c #0B310D",
"s.	c #246B18",
"t.	c #4CB92F",
"u.	c #41A329",
"v.	c #40A229",
"w.	c #40A329",
"x.	c #40A228",
"y.	c #49B42E",
"z.	c #1B5712",
"A.	c #0C2D0B",
"B.	c #020000",
"C.	c #7B8B55",
"D.	c #908650",
"E.	c #C5B589",
"F.	c #506840",
"G.	c #002903",
"H.	c #116521",
"I.	c #15671C",
"J.	c #1F5F14",
"K.	c #3A9826",
"L.	c #42A72A",
"M.	c #41A429",
"N.	c #43A92A",
"O.	c #348B22",
"P.	c #1C5C14",
"Q.	c #136B1F",
"R.	c #105C1D",
"S.	c #002502",
"T.	c #738257",
"U.	c #BDAF81",
"V.	c #8C824B",
"W.	c #73905A",
"X.	c #529964",
"Y.	c #529562",
"Z.	c #968650",
"`.	c #AF8A53",
" +	c #E7C199",
".+	c #697947",
"++	c #003F05",
"@+	c #14812D",
"#+	c #0E6820",
"$+	c #083A0B",
"%+	c #369224",
"&+	c #44AA2B",
"*+	c #2C7F1F",
"=+	c #06370A",
"-+	c #107627",
";+	c #137628",
">+	c #003B03",
",+	c #939264",
"'+	c #E0BA8F",
")+	c #AA844B",
"!+	c #898A55",
"~+	c #539A65",
"{+	c #5F8858",
"]+	c #6C3717",
"^+	c #D2BC96",
"/+	c #FDF9CF",
"(+	c #FEF8D2",
"_+	c #788E60",
":+	c #003701",
"<+	c #147829",
"[+	c #117D2A",
"}+	c #107F2B",
"|+	c #3BA029",
"1+	c #46A829",
"2+	c #48AA29",
"3+	c #31982A",
"4+	c #0D7D2B",
"5+	c #117F2A",
"6+	c #126F25",
"7+	c #003400",
"8+	c #A9B285",
"9+	c #FEF6CF",
"0+	c #FDFED3",
"a+	c #BB9874",
"b+	c #683818",
"c+	c #5A9360",
"d+	c #58925F",
"e+	c #5F774B",
"f+	c #9F8862",
"g+	c #BB9972",
"h+	c #E1BA88",
"i+	c #65733F",
"j+	c #003B04",
"k+	c #137B2A",
"l+	c #0F7224",
"m+	c #0E5C1A",
"n+	c #228627",
"o+	c #30972A",
"p+	c #42A529",
"q+	c #2D952A",
"r+	c #1E7D24",
"s+	c #0D5A19",
"t+	c #107928",
"u+	c #127125",
"v+	c #003702",
"w+	c #8D8C58",
"x+	c #DAB585",
"y+	c #B99671",
"z+	c #928159",
"A+	c #5B7A4E",
"B+	c #559763",
"C+	c #5F653E",
"D+	c #6D3B18",
"E+	c #A5763B",
"F+	c #4E5820",
"G+	c #05430B",
"H+	c #147B2A",
"I+	c #10631D",
"J+	c #0D3707",
"K+	c #096B24",
"L+	c #19852A",
"M+	c #43A529",
"N+	c #3FA128",
"O+	c #11802B",
"P+	c #0B611E",
"Q+	c #0D3607",
"R+	c #107124",
"S+	c #137124",
"T+	c #063F09",
"U+	c #6C6429",
"V+	c #9E6F37",
"W+	c #663413",
"X+	c #5C774B",
"Y+	c #559864",
"Z+	c #5F8C5C",
"`+	c #8B481B",
" @	c #368198",
".@	c #00AAF1",
"+@	c #09531F",
"@@	c #052F05",
"#@	c #010603",
"$@	c #0E6722",
"%@	c #13822B",
"&@	c #127C29",
"*@	c #359A29",
"=@	c #47A929",
"-@	c #2C9229",
";@	c #117B28",
">@	c #13842B",
",@	c #0B541C",
"'@	c #010403",
")@	c #063903",
"!@	c #076044",
"~@	c #01B2FD",
"{@	c #576B67",
"]@	c #86552A",
"^@	c #589462",
"/@	c #50915F",
"(@	c #4C2510",
"_@	c #53896C",
":@	c #55D7B2",
"<@	c #374E1E",
"[@	c #1D2509",
"}@	c #0E6522",
"|@	c #11802A",
"1@	c #0C7729",
"2@	c #258D29",
"3@	c #329729",
"4@	c #1F8729",
"5@	c #0C7628",
"6@	c #12832B",
"7@	c #0A501B",
"8@	c #252E09",
"9@	c #3C6238",
"0@	c #58E2BA",
"a@	c #506246",
"b@	c #4C4025",
"c@	c #509B67",
"d@	c #498D5C",
"e@	c #010402",
"f@	c #959302",
"g@	c #864F1F",
"h@	c #462214",
"i@	c #0F6723",
"j@	c #11812B",
"k@	c #107A29",
"l@	c #0E7929",
"m@	c #0D7829",
"n@	c #0F7A29",
"o@	c #107A28",
"p@	c #11852D",
"q@	c #0B521C",
"r@	c #010000",
"s@	c #57291C",
"t@	c #9B6B17",
"u@	c #535401",
"v@	c #183621",
"w@	c #519A64",
"x@	c #4E9763",
"y@	c #478C5C",
"z@	c #3E653A",
"A@	c #404105",
"B@	c #A0783D",
"C@	c #644927",
"D@	c #0E4310",
"E@	c #0F601A",
"F@	c #107C2A",
"G@	c #117B29",
"H@	c #117C29",
"I@	c #107C29",
"J@	c #107828",
"K@	c #105C17",
"L@	c #0A350D",
"M@	c #835F33",
"N@	c #8E6B33",
"O@	c #3B3E02",
"P@	c #417348",
"Q@	c #488D5C",
"R@	c #3C774D",
"S@	c #1E3F28",
"T@	c #876A3A",
"U@	c #574323",
"V@	c #0A2707",
"W@	c #0C4712",
"X@	c #107D2A",
"Y@	c #107B29",
"Z@	c #107727",
"`@	c #0C3D0D",
" #	c #071F06",
".#	c #72582E",
"+#	c #725E36",
"@#	c #20462B",
"##	c #458758",
"$#	c #16321E",
"%#	c #010503",
"&#	c #05250D",
"*#	c #11842D",
"=#	c #107E2A",
"-#	c #107B2A",
";#	c #020F06",
">#	c #030D05",
",#	c #2A5636",
"'#	c #418053",
")#	c #2C5B3A",
"!#	c #0F511F",
"~#	c #073F11",
"{#	c #0A2A0A",
"]#	c #010501",
"^#	c #041807",
"/#	c #0F5B18",
"(#	c #0F6F23",
"_#	c #0F6A20",
":#	c #0E5516",
"<#	c #010802",
"[#	c #030E03",
"}#	c #0A2D0A",
"|#	c #064714",
"1#	c #195327",
"2#	c #2F5F3D",
"3#	c #478B5B",
"4#	c #326440",
"5#	c #080905",
"6#	c #22873A",
"7#	c #1B722A",
"8#	c #0F430B",
"9#	c #051807",
"0#	c #041706",
"a#	c #0C3708",
"b#	c #0E651F",
"c#	c #0E5818",
"d#	c #0B3308",
"e#	c #020E05",
"f#	c #072208",
"g#	c #10470D",
"h#	c #1E8132",
"i#	c #1C7131",
"j#	c #040408",
"k#	c #3E7A50",
"l#	c #4A8F5E",
"m#	c #102717",
"n#	c #262116",
"o#	c #4F3429",
"p#	c #FFFAFC",
"q#	c #A3B9A4",
"r#	c #003000",
"s#	c #127528",
"t#	c #0C5E20",
"u#	c #0C5B1F",
"v#	c #11882E",
"w#	c #083D15",
"x#	c #107227",
"y#	c #0C661E",
"z#	c #013605",
"A#	c #D1DCCE",
"B#	c #D3DBE6",
"C#	c #245177",
"D#	c #10202D",
"E#	c #438356",
"F#	c #366843",
"G#	c #332011",
"H#	c #4B2917",
"I#	c #623925",
"J#	c #8C888A",
"K#	c #6D6F5E",
"L#	c #38390D",
"M#	c #1A792A",
"N#	c #0A6221",
"O#	c #0A4414",
"P#	c #10651E",
"Q#	c #10671E",
"R#	c #072C0D",
"S#	c #0C7728",
"T#	c #216A23",
"U#	c #3E3A12",
"V#	c #7B7C72",
"W#	c #7E7C7F",
"X#	c #4E4C4F",
"Y#	c #3F2F26",
"Z#	c #34331D",
"`#	c #387048",
" $	c #468A5A",
".$	c #2A5737",
"+$	c #140B06",
"@$	c #7A4622",
"#$	c #77431F",
"$$	c #6F3E1D",
"%$	c #010100",
"&$	c #2A140B",
"*$	c #874323",
"=$	c #227629",
"-$	c #076220",
";$	c #0A2E09",
">$	c #0E420C",
",$	c #0E440C",
"'$	c #071E06",
")$	c #030302",
"!$	c #067626",
"~$	c #376927",
"{$	c #863E21",
"]$	c #130B04",
"^$	c #170B03",
"/$	c #793E17",
"($	c #7A431F",
"_$	c #6E4121",
":$	c #030201",
"<$	c #376E47",
"[$	c #2B5838",
"}$	c #28241D",
"|$	c #F3E1B6",
"1$	c #E4C49A",
"2$	c #C7A67B",
"3$	c #1C4418",
"4$	c #226117",
"5$	c #4A9F2A",
"6$	c #615222",
"7$	c #683B1F",
"8$	c #6C351C",
"9$	c #23130A",
"0$	c #000200",
"a$	c #000100",
"b$	c #351B0F",
"c$	c #6E381E",
"d$	c #5B6223",
"e$	c #48A02A",
"f$	c #134C0F",
"g$	c #3E572B",
"h$	c #D7AF86",
"i$	c #EDD1A6",
"j$	c #D9C8A2",
"k$	c #060504",
"l$	c #386F48",
"m$	c #3A744B",
"n$	c #36553A",
"o$	c #B6AF91",
"p$	c #A99779",
"q$	c #937F60",
"r$	c #12300F",
"s$	c #1D5E15",
"t$	c #42B02C",
"u$	c #5E6923",
"v$	c #675B22",
"w$	c #6C6525",
"x$	c #314315",
"y$	c #12330D",
"z$	c #10320C",
"A$	c #404C19",
"B$	c #6D6626",
"C$	c #685821",
"D$	c #577725",
"E$	c #3FAF2B",
"F$	c #0F460C",
"G$	c #2B401F",
"H$	c #9F8568",
"I$	c #AEA081",
"J$	c #A7A285",
"K$	c #295335",
"L$	c #407F53",
"M$	c #498E5D",
"N$	c #040F06",
"O$	c #1B4511",
"P$	c #4AB82E",
"Q$	c #41A929",
"R$	c #40AC2A",
"S$	c #3DA929",
"T$	c #42AB2A",
"U$	c #44AC2B",
"V$	c #44AD2B",
"W$	c #41AB2A",
"X$	c #47B12D",
"Y$	c #10290A",
"Z$	c #051107",
"`$	c #193822",
" %	c #4D9662",
".%	c #46895A",
"+%	c #2C5939",
"@%	c #040303",
"#%	c #39231B",
"$%	c #2C2915",
"%%	c #0F320B",
"&%	c #177424",
"*%	c #24932A",
"=%	c #41A729",
"-%	c #41A72A",
";%	c #42A82A",
">%	c #3EA429",
",%	c #1F902B",
"'%	c #16671F",
")%	c #102D0A",
"!%	c #352818",
"~%	c #301D16",
"{%	c #010101",
"]%	c #376D47",
"^%	c #3B764D",
"/%	c #1C3C25",
"(%	c #453424",
"_%	c #2F1915",
":%	c #070003",
"<%	c #175821",
"[%	c #287B28",
"}%	c #4A9327",
"|%	c #3C8D26",
"1%	c #378B25",
"2%	c #408F26",
"3%	c #479027",
"4%	c #217829",
"5%	c #14461B",
"6%	c #0A0404",
"7%	c #3A221A",
"8%	c #3C3725",
"9%	c #1E4229",
"0%	c #132E1B",
"a%	c #20120E",
"b%	c #573427",
"c%	c #754223",
"d%	c #7E4623",
"e%	c #844925",
"f%	c #2A170C",
"g%	c #412412",
"h%	c #864A26",
"i%	c #7F4722",
"j%	c #6D3E23",
"k%	c #523327",
"l%	c #130B08",
"m%	c #265033",
"n%	c #417F53",
"o%	c #325F3E",
"p%	c #2D1E11",
"q%	c #311E0F",
"r%	c #321D0F",
"s%	c #376642",
"t%	c #3F7C51",
"u%	c #345738",
"v%	c #321D0E",
"w%	c #312112",
"x%	c #2A180E",
"y%	c #1F110E",
"z%	c #366944",
"A%	c #448557",
"B%	c #132C1A",
"C%	c #122B19",
"D%	c #081A0D",
"E%	c #3A734A",
"F%	c #102918",
"G%	c #112A18",
"H%	c #478C5B",
"I%	c #4E9663",
"                                                                                                ",
"                                                                                                ",
"                                                                                                ",
"                                                                                                ",
"                                            . . . . .                                           ",
"                                                                                                ",
"                                      + @ # $ % & * = - ; > , '                                 ",
"                                    )   ! ~ { ] ^ / ( _ :   )   .                               ",
"                                    < [ } | 1 2 3 4 5 6 7 8 9 0                                 ",
"                                ) a b c d e f g h i j k l m n o p q +                           ",
"                              )   r s t u v w x x y z A B C D E F G   .                         ",
"                              H I J K L M N O P P Q R S T U V W X Y Z ,                         ",
"                              `  ...+.@.#.$.%.%.%.&.$.*.=.-.;.>.m ,.'.).                        ",
"                        )   !.~.{.].^./.(._.:.:.:.:._.<.[.}.|.1.2.3.4.5.                        ",
"                      . 6.  7.8.9.0.a.b.c.d.d.d.d.d.e.f.g.h.i.j.k.l.m.n.                        ",
"                        o.  p.q.r.s.t.u.v.u.w.w.w.w.u.x.e.y.z.A.B.I   )                         ",
"                  .   C.D.E.F.G.H.I.J.K.L.u.M.M.M.M.w.N.O.P.Q.R.S.T.U.V.W.  '                   ",
"                  X.Y.Z.`. +.+++@+#+$+%+d.u.M.M.M.M.v.&+*+=+-+;+>+,+'+)+!+` ~+                  ",
"              5.  {+]+^+/+(+_+:+<+[+}+|+1+w.M.M.M.M.w.2+3+4+5+6+7+8+9+0+a+b+c+                  ",
"                  d+e+f+g+h+i+j+k+l+m+n+o+p+M.M.M.M.w.q+r+s+t+u+v+w+x+y+z+A+B+                  ",
"                      C+D+E+F+G+H+I+J+K+L+M+w.w.w.M.N+O+P+Q+R+S+T+U+V+W+X+  )                   ",
"                    5.Y+Z+`+ @.@+@@@#@$@%@&@*@1+=@-@;@>@,@'@)@!@~@{@]@^@B+)                     ",
"                    +   /@(@_@:@<@[@k.}@|@1@2@3@3@4@5@6@7@k.8@9@0@a@b@c@                        ",
"                    +   d@e@f@m g@h@k.i@j@k@l@m@m@n@o@p@q@r@s@t@C u@v@w@                        ",
"                        x@y@z@A@B@C@k.D@E@F@G@H@H@I@J@K@L@k.M@N@O@P@Q@)                         ",
"                        )   R@S@T@U@k.V@W@X@o@Y@Y@Y@Z@`@ #e@.#+#@###  )                         ",
"                          o.  a $#k.%#k.&#*#Y@Y@k@=#-#;#k.>#k.,#  ) o.                          ",
"                        )   '#)#!#~#{#]#^#/#(#F@X@_#:#<#[#}#|#1#2#3#  +                         ",
"                      + ` ) 4#5#6#7#8#9#0#a#b#X@=#c#d#e#f#g#h#i#j#k#H H +                       ",
"                    +   l#m#n#o#p#q#r#s#t#k.u#p@v#w#k.x#y#z#A#B#C#D#~.c@                        ",
"                      E#F#G#H#I#J#K#L#M#N#k.O#P#Q#R#k.S#T#U#V#W#X#Y#Z#`# $  +                   ",
"                  +   .$+$@$#$$$%$&$*$=$-$B.;$>$,$'$)$!$~${$]$^$/$($_$:$<$  o.                  ",
"                  +   [$}$|$1$2$3$4$5$6$7$8$9$0$a$b$c$7$d$e$f$g$h$i$j$k$l$  o.                  ",
"                      m$n$o$p$q$r$s$t$u$v$w$x$y$z$A$B$C$D$E$F$G$H$I$J$K$L$  )                   ",
"                    +   M$e@e@N$k.O$P$Q$R$S$T$U$V$W$S$R$T$X$Y$e@Z$k.`$)                         ",
"                         %.%+%@%#%$%%%&%*%=%-%d.d.;%>%,%'%)%!%~%{%]%3#a                         ",
"                        o.  ^%/%(%_%:%<%[%}%|%1%1%2%3%4%5%6%7%8%9%##  )                         ",
"                          o.  x@0%a%b%c%d%e%f%k.k.g%h%i%j%k%l%m%  o.)                           ",
"                              H n%o%a%p%q%r%s%[ t%u%v%w%x%y%z%A%                                ",
"                              o.  '#>#B%C%D%A%    E%k.0%F%G%H%  )                               ",
"                                ) H I%x@I%I%H ) ) ` I%x@I%I%a +                                 ",
"                                                                                                ",
"                                                                                                ",
"                                                                                                ",
"                                                                                                ",
"                                                                                                ",
"                                                                                                ",
"                                                                                                "};
