/* XPM */
static char * link_right_xpm[] = {
"48 48 628 2",
"  	c #509B66",
". 	c #519B66",
"+ 	c #529B66",
"@ 	c #46935B",
"# 	c #2C8341",
"$ 	c #419C44",
"% 	c #47A344",
"& 	c #46A144",
"* 	c #429943",
"= 	c #2F673C",
"- 	c #2F763F",
"; 	c #308745",
"> 	c #5B6540",
", 	c #756E46",
"' 	c #8F8552",
") 	c #619561",
"! 	c #4C9862",
"~ 	c #49965E",
"{ 	c #4C9861",
"] 	c #3C8F4F",
"^ 	c #168029",
"/ 	c #399E2A",
"( 	c #43A529",
"_ 	c #40A329",
": 	c #42A62A",
"< 	c #3A9725",
"[ 	c #0D3F0B",
"} 	c #13641C",
"| 	c #1E852C",
"1 	c #77581C",
"2 	c #976A27",
"3 	c #B08E3B",
"4 	c #85975A",
"5 	c #709D64",
"6 	c #699860",
"7 	c #5B9A64",
"8 	c #4F9A65",
"9 	c #388B4C",
"0 	c #117C29",
"a 	c #10762D",
"b 	c #228A2B",
"c 	c #46A82A",
"d 	c #40A32A",
"e 	c #41A42A",
"f 	c #46AD2C",
"g 	c #3E9F29",
"h 	c #09360E",
"i 	c #1F711B",
"j 	c #3EAF28",
"k 	c #E7F209",
"l 	c #FEFE05",
"m 	c #FDFE05",
"n 	c #EBC444",
"o 	c #CF9E55",
"p 	c #9A6F45",
"q 	c #70905D",
"r 	c #529A66",
"s 	c #4C9561",
"t 	c #3A774A",
"u 	c #277638",
"v 	c #127F2A",
"w 	c #288E2A",
"x 	c #349929",
"y 	c #41A429",
"z 	c #41A329",
"A 	c #43A72A",
"B 	c #2E801F",
"C 	c #256E1A",
"D 	c #21741A",
"E 	c #62912F",
"F 	c #A1AE41",
"G 	c #E4CE2F",
"H 	c #E4C929",
"I 	c #CBB622",
"J 	c #C19743",
"K 	c #C29A41",
"L 	c #D7C61B",
"M 	c #A49B46",
"N 	c #79895A",
"O 	c #549B65",
"P 	c #478D5B",
"Q 	c #0D400C",
"R 	c #0E621D",
"S 	c #13812B",
"T 	c #3FA229",
"U 	c #40A229",
"V 	c #3FA128",
"W 	c #44AA2A",
"X 	c #1A5A14",
"Y 	c #11440E",
"Z 	c #3CAE27",
"` 	c #9CAC41",
" .	c #F3A958",
"..	c #DFAD55",
"+.	c #C49450",
"@.	c #9A6F46",
"#.	c #9C7145",
"$.	c #B59531",
"%.	c #FEFE03",
"&.	c #C3A82B",
"*.	c #9B7B48",
"=.	c #5B9A63",
"-.	c #529A65",
";.	c #326D40",
">.	c #134F1A",
",.	c #14792A",
"'.	c #117929",
").	c #107A29",
"!.	c #27902A",
"~.	c #48AE2B",
"{.	c #44AA2B",
"].	c #44A92B",
"^.	c #49B32D",
"/.	c #1C5E14",
"(.	c #0E410E",
"_.	c #2BA02A",
":.	c #6F8C38",
"<.	c #B07E43",
"[.	c #F6F309",
"}.	c #DBCA1A",
"|.	c #996D3D",
"1.	c #D9A950",
"2.	c #D8A94F",
"3.	c #9D753E",
"4.	c #DBCD1A",
"5.	c #F2EE15",
"6.	c #A78144",
"7.	c #818F59",
"8.	c #2E673A",
"9.	c #0D4B11",
"0.	c #127D2B",
"a.	c #107C29",
"b.	c #107B29",
"c.	c #0D7A2A",
"d.	c #1B7C25",
"e.	c #2F7F1E",
"f.	c #2D7F1F",
"g.	c #2D7E1E",
"h.	c #2F811F",
"i.	c #216C1A",
"j.	c #2E7118",
"k.	c #83CB17",
"l.	c #959D2F",
"m.	c #A67643",
"n.	c #F9F801",
"o.	c #E5D723",
"p.	c #B18965",
"q.	c #B88944",
"r.	c #B8873F",
"s.	c #B2824E",
"t.	c #E8D919",
"u.	c #F7F608",
"v.	c #936635",
"w.	c #768252",
"x.	c #0D4910",
"y.	c #127C2A",
"z.	c #107928",
"A.	c #117F2B",
"B.	c #0E601C",
"C.	c #093408",
"D.	c #093A0A",
"E.	c #0A3B0B",
"F.	c #073509",
"G.	c #2E8522",
"H.	c #64BD28",
"I.	c #FFFF00",
"J.	c #D1BB22",
"K.	c #A07545",
"L.	c #F9F700",
"M.	c #F3E737",
"N.	c #DBB99F",
"O.	c #7A4C2D",
"P.	c #804E20",
"Q.	c #E8B35D",
"R.	c #F8E91E",
"S.	c #EFEE0C",
"T.	c #713F1E",
"U.	c #60774C",
"V.	c #519A65",
"W.	c #478D5A",
"X.	c #285D32",
"Y.	c #1B6A29",
"Z.	c #107425",
"`.	c #117A29",
" +	c #107D2A",
".+	c #107E2A",
"++	c #107F2B",
"@+	c #107023",
"#+	c #107626",
"$+	c #10681F",
"%+	c #0F3B09",
"&+	c #096920",
"*+	c #2F9425",
"=+	c #CEB823",
"-+	c #996B4A",
";+	c #B08F2B",
">+	c #BF9E51",
",+	c #D4B38D",
"'+	c #C8A57C",
")+	c #B78F64",
"!+	c #885227",
"~+	c #A88132",
"{+	c #B0963C",
"]+	c #5D8B5A",
"^+	c #559461",
"/+	c #509A65",
"(+	c #448856",
"_+	c #0D3D0B",
":+	c #106C22",
"<+	c #10812C",
"[+	c #0F7325",
"}+	c #0F6C22",
"|+	c #0F6D22",
"1+	c #107325",
"2+	c #0F7526",
"3+	c #0F6820",
"4+	c #0D4B10",
"5+	c #1F6827",
"6+	c #4B872C",
"7+	c #E6DE0F",
"8+	c #CFB922",
"9+	c #B59437",
"0+	c #AB834D",
"a+	c #BE986E",
"b+	c #DDBF97",
"c+	c #DEBE94",
"d+	c #BB9873",
"e+	c #4C2510",
"f+	c #7C673E",
"g+	c #8F8856",
"h+	c #509A66",
"i+	c #448957",
"j+	c #0E430C",
"k+	c #106B21",
"l+	c #10832D",
"m+	c #0F5F1A",
"n+	c #0E400B",
"o+	c #0D3C0A",
"p+	c #0F5918",
"q+	c #12872F",
"r+	c #0E440E",
"s+	c #114B12",
"t+	c #08862D",
"u+	c #7C803C",
"v+	c #B88045",
"w+	c #976B49",
"x+	c #D3BF1E",
"y+	c #FFFF02",
"z+	c #D5B579",
"A+	c #E5CBA6",
"B+	c #FFFDD1",
"C+	c #EED0A4",
"D+	c #A89070",
"E+	c #000000",
"F+	c #428154",
"G+	c #4F9965",
"H+	c #448557",
"I+	c #041403",
"J+	c #0F6221",
"K+	c #0F5917",
"L+	c #09330D",
"M+	c #041604",
"N+	c #0D3F0D",
"O+	c #0B4A0F",
"P+	c #075112",
"Q+	c #08621A",
"R+	c #0A611A",
"S+	c #015111",
"T+	c #5A5323",
"U+	c #905C2E",
"V+	c #9A7045",
"W+	c #D4C21C",
"X+	c #FFFF01",
"Y+	c #F8DFA3",
"Z+	c #B4A489",
"`+	c #464536",
" @	c #926945",
".@	c #795434",
"+@	c #418054",
"@@	c #438456",
"#@	c #0D581E",
"$@	c #107324",
"%@	c #0D400B",
"&@	c #071E08",
"*@	c #041007",
"=@	c #174813",
"-@	c #274D1D",
";@	c #2A8337",
">@	c #2A7D35",
",@	c #204A18",
"'@	c #54401C",
")@	c #7B4621",
"!@	c #A47946",
"~@	c #D1BB21",
"{@	c #F5F109",
"]@	c #FFF6BB",
"^@	c #A89E89",
"/@	c #06070B",
"(@	c #5A3726",
"_@	c #593825",
":@	c #1B1712",
"<@	c #3F794F",
"[@	c #4D9663",
"}@	c #0B2F0B",
"|@	c #0E420C",
"1@	c #0F4D0F",
"2@	c #062007",
"3@	c #040204",
"4@	c #003700",
"5@	c #698A57",
"6@	c #FFF7D1",
"7@	c #F7E5BB",
"8@	c #E9D4AB",
"9@	c #D2B48A",
"0@	c #956642",
"a@	c #824B23",
"b@	c #DFA95B",
"c@	c #C0924C",
"d@	c #A88246",
"e@	c #F6DBAD",
"f@	c #FFEFD5",
"g@	c #FCFDFD",
"h@	c #5470AF",
"i@	c #4D5F91",
"j@	c #E9C392",
"k@	c #4B3F32",
"l@	c #1C3E26",
"m@	c #0D4716",
"n@	c #105C1C",
"o@	c #072207",
"p@	c #2A5837",
"q@	c #3A724A",
"r@	c #08240D",
"s@	c #575C38",
"t@	c #E1BB88",
"u@	c #F4DCB2",
"v@	c #FAE1B9",
"w@	c #F5D8AC",
"x@	c #6E5642",
"y@	c #482E0B",
"z@	c #F6DF2B",
"A@	c #BA962C",
"B@	c #865837",
"C@	c #F3D9AB",
"D@	c #FFF2D8",
"E@	c #FFFFFF",
"F@	c #516FB1",
"G@	c #4A5F93",
"H@	c #EFC997",
"I@	c #4B4032",
"J@	c #183621",
"K@	c #438557",
"L@	c #0E6122",
"M@	c #12752A",
"N@	c #3E7A4F",
"O@	c #132C1A",
"P@	c #422E17",
"Q@	c #A77938",
"R@	c #E2CBA0",
"S@	c #FBE4BD",
"T@	c #FFF5C9",
"U@	c #464542",
"V@	c #151500",
"W@	c #B49A0D",
"X@	c #683326",
"Y@	c #F1D7A9",
"Z@	c #FFF1D6",
"`@	c #FFFEFE",
" #	c #526EAD",
".#	c #4A5E90",
"+#	c #EAC493",
"@#	c #438356",
"##	c #0D3B10",
"$#	c #114915",
"%#	c #000101",
"&#	c #3B764D",
"*#	c #102918",
"=#	c #040303",
"-#	c #0A0D0A",
";#	c #9F723B",
">#	c #9AA07E",
",#	c #1ED9FF",
"'#	c #053E54",
")#	c #231800",
"!#	c #FFFF03",
"~#	c #B59A10",
"{#	c #6D3928",
"]#	c #F2DDB0",
"^#	c #FFEEC6",
"/#	c #FDEBC7",
"(#	c #E2C7A6",
"_#	c #A48E76",
":#	c #181510",
"<#	c #3F784F",
"[#	c #488C5C",
"}#	c #2E5E3C",
"|#	c #1A3F22",
"1#	c #153A1A",
"2#	c #2B5838",
"3#	c #539C66",
"4#	c #575F19",
"5#	c #524D0C",
"6#	c #4A3A21",
"7#	c #6E4C20",
"8#	c #535B47",
"9#	c #0089B3",
"0#	c #002337",
"a#	c #231B00",
"b#	c #B49A0F",
"c#	c #6A3626",
"d#	c #E3C99D",
"e#	c #F0D6AC",
"f#	c #EED3AA",
"g#	c #AE9472",
"h#	c #776E50",
"i#	c #2C5B3A",
"j#	c #478A5B",
"k#	c #285335",
"l#	c #1B3B24",
"m#	c #64A163",
"n#	c #F6F91B",
"o#	c #FBE824",
"p#	c #F6BD64",
"q#	c #352A12",
"r#	c #050401",
"s#	c #000001",
"t#	c #242302",
"u#	c #B79D10",
"v#	c #703928",
"w#	c #D4AE82",
"x#	c #DCB98F",
"y#	c #E2C093",
"z#	c #30281F",
"A#	c #285334",
"B#	c #46895A",
"C#	c #529B65",
"D#	c #8CB55C",
"E#	c #658347",
"F#	c #382A17",
"G#	c #17320E",
"H#	c #0A3E0F",
"I#	c #107128",
"J#	c #001C0A",
"K#	c #1E1307",
"L#	c #FED548",
"M#	c #826423",
"N#	c #100004",
"O#	c #405A29",
"P#	c #3E4C29",
"Q#	c #3C2E27",
"R#	c #437C51",
"S#	c #4A915F",
"T#	c #3F7D51",
"U#	c #0D4212",
"V#	c #0E7026",
"W#	c #112B0F",
"X#	c #2E1B0E",
"Y#	c #BF924C",
"Z#	c #544D26",
"`#	c #001003",
" $	c #07480D",
".$	c #023709",
"+$	c #021806",
"@$	c #4C9360",
"#$	c #3E7A50",
"$$	c #020202",
"%$	c #116F27",
"&$	c #0E6321",
"*$	c #5D2F19",
"=$	c #753C1F",
"-$	c #0A4617",
";$	c #149231",
">$	c #127C2B",
",$	c #137E2B",
"'$	c #15852E",
")$	c #021A0B",
"!$	c #3F7C51",
"~$	c #0E6E26",
"{$	c #0C6421",
"]$	c #234618",
"^$	c #2E6421",
"/$	c #064D16",
"($	c #053C13",
"_$	c #073211",
":$	c #0D7527",
"<$	c #0F7E29",
"[$	c #0A792A",
"}$	c #859D0A",
"|$	c #8B8B21",
"1$	c #2F5F3D",
"2$	c #3C764D",
"3$	c #010A04",
"4$	c #176C26",
"5$	c #136121",
"6$	c #115F28",
"7$	c #1C8E3C",
"8$	c #259540",
"9$	c #10401B",
"0$	c #166E25",
"a$	c #197C29",
"b$	c #107029",
"c$	c #CEEB0D",
"d$	c #C3C506",
"e$	c #417F53",
"f$	c #4E9763",
"g$	c #1A3A23",
"h$	c #0A3414",
"i$	c #0E802A",
"j$	c #664822",
"k$	c #5E2D1A",
"l$	c #AFAFAD",
"m$	c #7A7C7A",
"n$	c #6D3A21",
"o$	c #753D21",
"p$	c #76381F",
"q$	c #277228",
"r$	c #0D6322",
"s$	c #010000",
"t$	c #132E1B",
"u$	c #10852C",
"v$	c #537426",
"w$	c #4B551D",
"x$	c #6E7884",
"y$	c #A7B7C8",
"z$	c #ACBBCD",
"A$	c #4C535C",
"B$	c #576724",
"C$	c #5F7125",
"D$	c #5E6B23",
"E$	c #328D2A",
"F$	c #1B7123",
"G$	c #418053",
"H$	c #16331F",
"I$	c #073311",
"J$	c #12832E",
"K$	c #36A82B",
"L$	c #2F8321",
"M$	c #18324A",
"N$	c #24496E",
"O$	c #254C71",
"P$	c #0F2032",
"Q$	c #000300",
"R$	c #389C27",
"S$	c #3EAE2A",
"T$	c #3AA729",
"U$	c #48B22C",
"V$	c #398725",
"W$	c #4C9361",
"X$	c #39724A",
"Y$	c #011207",
"Z$	c #3D9928",
"`$	c #398923",
" %	c #482D1C",
".%	c #6B4229",
"+%	c #6C4027",
"@%	c #301B11",
"#%	c #000200",
"$%	c #157828",
"%%	c #2A972C",
"&%	c #4BB32D",
"*%	c #173B0F",
"=%	c #254D30",
"-%	c #498F5E",
";%	c #458758",
">%	c #295536",
",%	c #317329",
"'%	c #265E18",
")%	c #010402",
"!%	c #65442A",
"~%	c #986841",
"{%	c #A67850",
"]%	c #4B3524",
"^%	c #094E1C",
"/%	c #18631E",
"(%	c #347B1F",
"_%	c #275030",
":%	c #397149",
"<%	c #244C30",
"[%	c #051309",
"}%	c #9F8769",
"|%	c #F2D2A5",
"1%	c #FFFFDE",
"2%	c #7B7763",
"3%	c #060806",
"4%	c #020803",
"5%	c #478B5B",
"6%	c #2C261E",
"7%	c #453A2D",
"8%	c #49463A",
"9%	c #3F3027",
"0%	c #361C16",
"a%	c #341E19",
"b%	c #412618",
"c%	c #5C371B",
"d%	c #2A482D",
"e%	c #376E47",
"f%	c #22482D",
"g%	c #030904",
"h%	c #281A13",
"i%	c #532E24",
"j%	c #4E2C20",
"k%	c #603621",
"l%	c #7F4A24",
"m%	c #1B1008",
"n%	c #275133",
"o%	c #2B5939",
"p%	c #030303",
"q%	c #030D06",
"r%	c #2A1813",
"s%	c #563125",
"t%	c #764423",
"u%	c #7C4723",
"v%	c #7E4A25",
"w%	c #1C1008",
"x%	c #265033",
"y%	c #3B764C",
"z%	c #407E52",
"A%	c #2F5638",
"B%	c #21120E",
"C%	c #302012",
"D%	c #311C0E",
"E%	c #321C0E",
"F%	c #376944",
"G%	c #3A734A",
"H%	c #112A18",
"I%	c #478C5B",
"J%	c #4E9864",
"K%	c #4E9663",
"                                                                                                ",
"                                                                                                ",
"                                                                                                ",
"                                                                                                ",
"                                                        . . .                                   ",
"                                                            . + . .                             ",
"                                  @ # $ % & % * = - ; > , ' )   .                               ",
"                            ! ~ { ] ^ / ( _ : < [ } | 1 2 3 4 5 6 7 . .                         ",
"                        8   9 0 a b c d e d f g h i j k l m n o p q   r                         ",
"                        s t u v w x ( y z A B C D E F G H I J K L M N O                         ",
"                        P Q R S T ( U _ V W X Y Z `  ...+.@.#.$.%.&.*.=.-.                      ",
"                      ;.>.,.'.0 ).!.~.{.].^./.(._.:.<.[.}.|.1.2.3.4.5.6.7.  +                   ",
"                      8.9.0.a.b.c.d.e.f.g.h.i.j.k.l.m.n.o.p.q.r.s.t.u.v.w.  -.                  ",
"                      = x.y.b.z.A.B.C.D.E.F.G.H.I.J.K.L.M.N.O.P.Q.R.S.T.U.  V.                  ",
"                  W.X.Y.Z.`. +.+++z.@+#+$+%+&+*+I.=+-+;+>+,+'+)+!+~+{+]+^+                      ",
"              /+  (+_+:+<+).[+}+|+1+.+2+3+4+5+6+7+8+9+0+a+b+c+d+e+f+g+h+                        ",
"              /+  i+j+k+ +l+m+n+o+p+q+r+s+t+u+v+w+x+y+z+A+B+C+D+E+F+  G+                        ",
"              /+  H+I+J+b.K+L+M+N+O+P+Q+R+S+T+U+V+W+X+Y+Z+`+ @.@E++@  /+                        ",
"              /+  @@E+#@$@%@&@*@E.=@-@;@>@,@'@)@!@~@{@]@^@/@(@_@:@<@[@8                         ",
"              /+  @@E+}@|@1@2@3@4@5@6@7@8@9@0@a@b@c@d@e@f@g@h@i@j@k@l@V.                        ",
"              /+  @@E+m@n@o@p@q@r@s@t@u@v@w@x@y@z@A@B@C@D@E@F@G@H@I@J@V.                        ",
"              /+  K@E+L@M@E+N@  O@P@Q@R@S@T@U@V@X+W@X@Y@Z@`@ #.#+#I@l@V.                        ",
"              /+  @#E+##$#%#&#  *#=#-#;#>#,#'#)#!#~#{#]#^#/#(#_#:#<#[@8                         ",
"              h+  [#}#|#1#2#H+3#4#5#6#7#8#9#0#a#I.b#c#d#e#f#g#h#i#j#  h+                        ",
"                  h+  k#l#    m#n#o#p#q#E+r#s#t#I.u#v#w#x#y#z#A#  h+h+                          ",
"                      [#B#8   C#D#E#F#G#H#I#J#K#L#M#N#O#P#Q#R#S#8                               ",
"                              /+  T#E+U#p+V#W#X#Y#Z#`# $.$+$T#@$8                               ",
"                      h+h+    8   #$$$%$&$E+*$=$E+-$;$>$,$'$)$k#                                ",
"                              /+  !$E+~${$E+]$^$/$($_$:$<$[$}$|$1$j#  h+                        ",
"                              8 G+2$3$4$5$E+6$7$8$9$E+0$a$b$c$d$s#e$  /+                        ",
"                              f$g$h$i$j$k$E+l$E@E@m$E+n$o$p$q$r$s$+@  /+                        ",
"                              f$t$_$u$v$w$E+x$y$z$A$E+B$C$D$E$F$E+G$  /+                        ",
"                              f$H$I$J$K$L$E+M$N$O$P$Q$R$S$T$U$V$E++@  /+                        ",
"                              8 W$X$Y$Z$`$E+ %.%+%@%#%$%%%&%*%=%-%f$                            ",
"                              h+  ;%>%,%'%)%!%~%{%]%E+^%/%(%_%:%                                ",
"                                h+    <%$$[%}%|%1%2%E+3%E+4%5%  8                               ",
"                                    8 [#:%E+6%7%8%9%0%a%b%c%d%e%                                ",
"                                    h+  j#f%t$g%[%h%i%j%k%l%m%n%                                ",
"                                      h+8   o%p%q%r%s%t%u%v%w%x%                                ",
"                                            H+y%z%A%B%C%D%E%F%H+.                               ",
"                                              8   G%E+t$*#H%I%  h+                              ",
"                                            /+8 /+J%[@f$K%K%G+h+                                ",
"                                                                                                ",
"                                      h+/+        /+8 8 /+                                      ",
"                                                                                                ",
"                                                                                                ",
"                                                                                                ",
"                                                                                                "};
