/* XPM */
static char * player2_xpm[] = {
"48 48 733 2",
"  	c #509B66",
". 	c #509A65",
"+ 	c #509B65",
"@ 	c #4B9260",
"# 	c #438356",
"$ 	c #458F59",
"% 	c #45945A",
"& 	c #459359",
"* 	c #45965A",
"= 	c #448858",
"- 	c #448557",
"; 	c #4E9864",
"> 	c #4F9A65",
", 	c #3F7C51",
"' 	c #000000",
") 	c #0E6424",
"! 	c #0D7D2B",
"~ 	c #0C7729",
"{ 	c #0D7829",
"] 	c #0C7628",
"^ 	c #0F822C",
"/ 	c #063713",
"( 	c #081A0D",
"_ 	c #4B9360",
": 	c #4F9965",
"< 	c #326541",
"[ 	c #23512F",
"} 	c #0B5C1F",
"| 	c #2C8C28",
"1 	c #359C2A",
"2 	c #339829",
"3 	c #349929",
"4 	c #379E2B",
"5 	c #1F7724",
"6 	c #0F5621",
"7 	c #275234",
"8 	c #3D784E",
"9 	c #509A66",
"0 	c #4C9562",
"a 	c #478B5B",
"b 	c #132F1C",
"c 	c #094015",
"d 	c #138A2E",
"e 	c #369A29",
"f 	c #40A329",
"g 	c #3EA129",
"h 	c #3EA229",
"i 	c #3DA129",
"j 	c #41A429",
"k 	c #27922B",
"l 	c #107E2C",
"m 	c #06210B",
"n 	c #2B5939",
"o 	c #4E9763",
"p 	c #366C46",
"q 	c #000401",
"r 	c #11722A",
"s 	c #0F7B2B",
"t 	c #0C7829",
"u 	c #0C7428",
"v 	c #10812D",
"w 	c #0C501E",
"x 	c #051309",
"y 	c #4C9461",
"z 	c #397149",
"A 	c #245432",
"B 	c #0A4918",
"C 	c #288B28",
"D 	c #2A9329",
"E 	c #289029",
"F 	c #28902A",
"G 	c #299229",
"H 	c #299129",
"I 	c #299128",
"J 	c #2C972A",
"K 	c #1D7522",
"L 	c #074117",
"M 	c #2E5F3C",
"N 	c #488C5C",
"O 	c #0B4A19",
"P 	c #199130",
"Q 	c #44A029",
"R 	c #4BA829",
"S 	c #4CAB28",
"T 	c #4BA928",
"U 	c #4AA829",
"V 	c #49A729",
"W 	c #49A629",
"X 	c #4CA829",
"Y 	c #35982A",
"Z 	c #148830",
"` 	c #265032",
" .	c #498F5E",
"..	c #091C0F",
"+.	c #1C5A16",
"@.	c #40AE2A",
"#.	c #8C7540",
"$.	c #BCAB29",
"%.	c #F0FC01",
"&.	c #F5FF00",
"*.	c #D8D713",
"=.	c #906F46",
"-.	c #977841",
";.	c #A48C38",
">.	c #F2FD00",
",.	c #BFB225",
"'.	c #8C6B48",
").	c #A37D40",
"!.	c #758A36",
"~.	c #31AA27",
"{.	c #0E2409",
"].	c #2A5637",
"^.	c #519B66",
"/.	c #468859",
"(.	c #397249",
"_.	c #042F13",
":.	c #3C6923",
"<.	c #749E35",
"[.	c #9A7244",
"}.	c #CAAC29",
"|.	c #FFFF00",
"1.	c #E6D614",
"2.	c #D5BF20",
"3.	c #C8AB2A",
"4.	c #AE863C",
"5.	c #B0883B",
"6.	c #E3D415",
"7.	c #C0A12E",
"8.	c #AF7F3F",
"9.	c #8E833C",
"0.	c #689B33",
"a.	c #1D4919",
"b.	c #1F4C2D",
"c.	c #4A915F",
"d.	c #2B5738",
"e.	c #061709",
"f.	c #05892C",
"g.	c #647E38",
"h.	c #B77842",
"i.	c #976D48",
"j.	c #C3AA2A",
"k.	c #A57E3F",
"l.	c #AE8B39",
"m.	c #BB9D30",
"n.	c #A7813E",
"o.	c #FCFD00",
"p.	c #FDFC02",
"q.	c #A9853C",
"r.	c #A17445",
"s.	c #B27942",
"t.	c #318933",
"u.	c #076A24",
"v.	c #030002",
"w.	c #418053",
"x.	c #539B66",
"y.	c #8C8850",
"z.	c #A38E58",
"A.	c #C7B58B",
"B.	c #735736",
"C.	c #542D10",
"D.	c #55441E",
"E.	c #9B773C",
"F.	c #D9A854",
"G.	c #E9E10E",
"H.	c #EAD522",
"I.	c #E1B24C",
"J.	c #EFE116",
"K.	c #DFD215",
"L.	c #AE893B",
"M.	c #D8C71A",
"N.	c #EADD15",
"O.	c #EBC244",
"P.	c #CBA53A",
"Q.	c #AE8D30",
"R.	c #ECE30E",
"S.	c #D0BD20",
"T.	c #9B6F49",
"U.	c #6C5427",
"V.	c #59421D",
"W.	c #51260D",
"X.	c #98825C",
"Y.	c #C0B183",
"Z.	c #9B844A",
"`.	c #7C905A",
" +	c #529B66",
".+	c #5C9A64",
"++	c #549C67",
"@+	c #8B7541",
"#+	c #AA8251",
"$+	c #E3C79F",
"%+	c #AC835D",
"&+	c #91623D",
"*+	c #7B4326",
"=+	c #BA8B36",
"-+	c #EFC942",
";+	c #E9DF10",
">+	c #E8D323",
",+	c #E2B649",
"'+	c #EDDF17",
")+	c #D8C81A",
"!+	c #98684C",
"~+	c #E1D514",
"{+	c #FDF908",
"]+	c #D29F53",
"^+	c #BC8F55",
"/+	c #AB8454",
"(+	c #E7DB14",
"_+	c #D8C61C",
":+	c #B69438",
"<+	c #8E5C28",
"[+	c #86512F",
"}+	c #936641",
"|+	c #C6A27B",
"1+	c #DABB90",
"2+	c #996F3A",
"3+	c #7C8652",
"4+	c #529A65",
"5+	c #5D9864",
"6+	c #559C68",
"7+	c #635431",
"8+	c #956C4B",
"9+	c #FDFBD3",
"0+	c #FFF3CB",
"a+	c #F2E2B3",
"b+	c #A27849",
"c+	c #DBCC1C",
"d+	c #9C7243",
"e+	c #BFA32B",
"f+	c #AA843D",
"g+	c #986B48",
"h+	c #9B7142",
"i+	c #E4D814",
"j+	c #F8F506",
"k+	c #9A7035",
"l+	c #BC9765",
"m+	c #D9BA8D",
"n+	c #9E704E",
"o+	c #C1A52B",
"p+	c #B2922E",
"q+	c #B69364",
"r+	c #FFF4CB",
"s+	c #FEF6CD",
"t+	c #EEE1B9",
"u+	c #734121",
"v+	c #62764B",
"w+	c #519A65",
"x+	c #589663",
"y+	c #588A5A",
"z+	c #757F52",
"A+	c #9B7451",
"B+	c #D5B087",
"C+	c #DDB98C",
"D+	c #79472A",
"E+	c #A5802C",
"F+	c #C9AF2E",
"G+	c #C6954E",
"H+	c #DFC130",
"I+	c #E7DD10",
"J+	c #DAC226",
"K+	c #D09F54",
"L+	c #AC8622",
"M+	c #A07E1C",
"N+	c #C09B6C",
"O+	c #DBBC91",
"P+	c #F0D7AC",
"Q+	c #A57D48",
"R+	c #BB953A",
"S+	c #F2D13B",
"T+	c #AC833C",
"U+	c #AD8455",
"V+	c #F0CDA0",
"W+	c #B8926B",
"X+	c #937550",
"Y+	c #628354",
"Z+	c #57905E",
"`+	c #539964",
" @	c #588B5A",
".@	c #614525",
"+@	c #A49072",
"@@	c #B8A885",
"#@	c #7C4E16",
"$@	c #8D6030",
"%@	c #9F7345",
"&@	c #D6A255",
"*@	c #EAC837",
"=@	c #FBF707",
"-@	c #F9F703",
";@	c #EDDD19",
">@	c #DDA956",
",@	c #936035",
"'@	c #7E4D3B",
")@	c #DABA91",
"!@	c #F0D4AC",
"~@	c #FEE6BD",
"{@	c #AB8550",
"]@	c #B48748",
"^@	c #D6A055",
"/@	c #B38A3B",
"(@	c #AD8F4C",
"_@	c #C2B89B",
":@	c #856644",
"<@	c #5D5834",
"[@	c #539C68",
"}@	c #519A67",
"|@	c #2BBADF",
"1@	c #2ECDD7",
"2@	c #FEFE06",
"3@	c #AD910F",
"4@	c #6C3722",
"5@	c #E8B354",
"6@	c #ECB857",
"7@	c #E2B051",
"8@	c #B78D49",
"9@	c #986E3A",
"0@	c #642F10",
"a@	c #B08960",
"b@	c #DFBF93",
"c@	c #FDE5BC",
"d@	c #FFEEC5",
"e@	c #FDEFC6",
"f@	c #F0CFA2",
"g@	c #BA9167",
"h@	c #633019",
"i@	c #E7D100",
"j@	c #C3F545",
"k@	c #03C5FF",
"l@	c #42ADAE",
"m@	c #509A67",
"n@	c #2C717F",
"o@	c #28756C",
"p@	c #FEFE05",
"q@	c #C0A61B",
"r@	c #825235",
"s@	c #6D5526",
"t@	c #906E35",
"u@	c #C9994D",
"v@	c #936533",
"w@	c #90633A",
"x@	c #A07652",
"y@	c #D3B28A",
"z@	c #EED2A9",
"A@	c #EDD1A8",
"B@	c #D2B088",
"C@	c #B38D68",
"D@	c #72614C",
"E@	c #765B3D",
"F@	c #885832",
"G@	c #EDDF06",
"H@	c #C3DC20",
"I@	c #005982",
"J@	c #418A70",
"K@	c #2C5B3A",
"L@	c #292601",
"M@	c #CEB727",
"N@	c #997046",
"O@	c #040401",
"P@	c #3A2B19",
"Q@	c #AC8248",
"R@	c #71411F",
"S@	c #8C5E3D",
"T@	c #E1C297",
"U@	c #F5DCB3",
"V@	c #F9E3BA",
"W@	c #9A704C",
"X@	c #5E2B0D",
"Y@	c #020000",
"Z@	c #3C2E18",
"`@	c #AC8049",
" #	c #EEE511",
".#	c #BFBE07",
"+#	c #000001",
"@#	c #2A5737",
"##	c #262010",
"$#	c #FBCC53",
"%#	c #B07D35",
"&#	c #784629",
"*#	c #E6E1D9",
"=#	c #A2ADC6",
"-#	c #345090",
";#	c #5F3624",
">#	c #8F5F37",
",#	c #F9E5BD",
"'#	c #FFE6BD",
")#	c #E9D1AA",
"!#	c #7C4317",
"~#	c #554959",
"{#	c #3A579A",
"]#	c #D6DCE5",
"^#	c #C1AC9C",
"/#	c #713915",
"(#	c #E4B24C",
"_#	c #BC9B41",
":#	c #000004",
"<#	c #417F53",
"[#	c #3B764D",
"}#	c #325536",
"|#	c #9F7D40",
"1#	c #6B4823",
"2#	c #4C2C1B",
"3#	c #FFF8E1",
"4#	c #AFBBD1",
"5#	c #1E459B",
"6#	c #88716E",
"7#	c #BC9B7B",
"8#	c #FFEBC3",
"9#	c #FFE9BF",
"0#	c #EFD7B3",
"a#	c #A77F61",
"b#	c #636583",
"c#	c #2C53A4",
"d#	c #F6F8F1",
"e#	c #C2B09D",
"f#	c #3D1B07",
"g#	c #8E6A37",
"h#	c #816E3C",
"i#	c #46895A",
"j#	c #498E5D",
"k#	c #020503",
"l#	c #0A0D0C",
"m#	c #F6E0B0",
"n#	c #ADAEB2",
"o#	c #133992",
"p#	c #D4DCEE",
"q#	c #FFFFF3",
"r#	c #FCE3B9",
"s#	c #FEE5BB",
"t#	c #FBE6C5",
"u#	c #FFFFFF",
"v#	c #8EA0CA",
"w#	c #1A3D8E",
"x#	c #F8EBC7",
"y#	c #A5997B",
"z#	c #030D05",
"A#	c #030302",
"B#	c #285334",
"C#	c #4A8F5E",
"D#	c #2F5F3D",
"E#	c #0B0706",
"F#	c #AC8954",
"G#	c #C4AF87",
"H#	c #CBCCC2",
"I#	c #F3E3C7",
"J#	c #FFECC9",
"K#	c #FFE8BF",
"L#	c #FEE8C1",
"M#	c #FFEECC",
"N#	c #E4DBC5",
"O#	c #C6C4B7",
"P#	c #C9A770",
"Q#	c #78603D",
"R#	c #020803",
"S#	c #3E7A50",
"T#	c #4B915F",
"U#	c #306440",
"V#	c #102511",
"W#	c #855E2A",
"X#	c #B6935F",
"Y#	c #E9D4A6",
"Z#	c #EED6A9",
"`#	c #F2DBB0",
" $	c #F2DBB1",
".$	c #F2DBB2",
"+$	c #F1DBB1",
"@$	c #F2DAAF",
"#$	c #EBD4A7",
"$$	c #E0C89A",
"%$	c #A77840",
"&$	c #604D24",
"*$	c #02210F",
"=$	c #407D51",
"-$	c #00410E",
";$	c #077B1D",
">$	c #714321",
",$	c #7B3C20",
"'$	c #703217",
")$	c #CD9F7B",
"!$	c #E7BC96",
"~$	c #E1B58F",
"{$	c #E2B790",
"]$	c #E0B48E",
"^$	c #EBC19B",
"/$	c #A87353",
"($	c #6A2D11",
"_$	c #843E24",
":$	c #4F531F",
"<$	c #037D1D",
"[$	c #011906",
"}$	c #285335",
"|$	c #3D794F",
"1$	c #2C583B",
"2$	c #152E46",
"3$	c #6B8C85",
"4$	c #AAD4AF",
"5$	c #39481D",
"6$	c #324E18",
"7$	c #376828",
"8$	c #558847",
"9$	c #5E9351",
"0$	c #5C914E",
"a$	c #5C914F",
"b$	c #5B904E",
"c$	c #5F9452",
"d$	c #497B3A",
"e$	c #356325",
"f$	c #2C3D0D",
"g$	c #5C734B",
"h$	c #ADDABA",
"i$	c #463E32",
"j$	c #2A3924",
"k$	c #2F603D",
"l$	c #4F9964",
"m$	c #4D9663",
"n$	c #2A5334",
"o$	c #17171A",
"p$	c #2F4F6D",
"q$	c #A6AFC0",
"r$	c #F8F4F3",
"s$	c #1D4B1C",
"t$	c #085714",
"u$	c #0C842D",
"v$	c #057623",
"w$	c #047721",
"x$	c #067A21",
"y$	c #067922",
"z$	c #037521",
"A$	c #077B26",
"B$	c #0F802D",
"C$	c #003D01",
"D$	c #617F5F",
"E$	c #FFFBFF",
"F$	c #76574D",
"G$	c #3D2418",
"H$	c #0C0907",
"I$	c #3E7A4F",
"J$	c #07180C",
"K$	c #4C3119",
"L$	c #6C3A1A",
"M$	c #6B3616",
"N$	c #30180E",
"O$	c #050508",
"P$	c #75311C",
"Q$	c #4C5624",
"R$	c #01832A",
"S$	c #0D802B",
"T$	c #097D2C",
"U$	c #00712E",
"V$	c #02742D",
"W$	c #0C802B",
"X$	c #0A802A",
"Y$	c #0C7B29",
"Z$	c #724321",
"`$	c #512517",
" %	c #010307",
".%	c #542A11",
"+%	c #693515",
"@%	c #6E3E1C",
"#%	c #271B0D",
"$%	c #1E4128",
"%%	c #438456",
"&%	c #74563B",
"*%	c #AB7F58",
"=%	c #C0956F",
"-%	c #524E30",
";%	c #001700",
">%	c #5C6B24",
",%	c #536B25",
"'%	c #3C5F24",
")%	c #3B5C25",
"!%	c #4D7521",
"~%	c #7FB916",
"{%	c #7FBA16",
"]%	c #74AB18",
"^%	c #3E6125",
"/%	c #3D6025",
"(%	c #3D5F24",
"_%	c #607327",
":%	c #3E5219",
"<%	c #001400",
"[%	c #8F7956",
"}%	c #B48C67",
"|%	c #AB7D56",
"1%	c #392A1D",
"2%	c #183621",
"3%	c #509965",
"4%	c #9F896A",
"5%	c #EDCEA1",
"6%	c #FEFED8",
"7%	c #799563",
"8%	c #39AE2B",
"9%	c #568026",
"0%	c #80361E",
"a%	c #733521",
"b%	c #9E6D17",
"c%	c #ECE304",
"d%	c #7C3F1F",
"e%	c #7B3B20",
"f%	c #773E1F",
"g%	c #46A72A",
"h%	c #2B8921",
"i%	c #083A07",
"j%	c #C9D2A7",
"k%	c #FEEDC5",
"l%	c #EBC89B",
"m%	c #504536",
"n%	c #1B3B24",
"o%	c #4A905F",
"p%	c #315437",
"q%	c #221C16",
"r%	c #292820",
"s%	c #12140E",
"t%	c #010F03",
"u%	c #147B29",
"v%	c #2C902B",
"w%	c #4E9C28",
"x%	c #217728",
"y%	c #1B7627",
"z%	c #2B8924",
"A%	c #298625",
"B%	c #156E28",
"C%	c #338728",
"D%	c #4B9A28",
"E%	c #1E8F2D",
"F%	c #105A1D",
"G%	c #000200",
"H%	c #1F1F18",
"I%	c #27261E",
"J%	c #211B15",
"K%	c #3E764D",
"L%	c #3A734B",
"M%	c #295536",
"N%	c #2E5E3C",
"O%	c #1C3D25",
"P%	c #020502",
"Q%	c #084D1C",
"R%	c #197323",
"S%	c #339E2A",
"T%	c #1F8A29",
"U%	c #198629",
"V%	c #17822A",
"W%	c #16812A",
"X%	c #18832A",
"Y%	c #279129",
"Z%	c #309728",
"`%	c #0E6321",
" &	c #063613",
".&	c #264F32",
"+&	c #2D5D3B",
"@&	c #468A5A",
"#&	c #000201",
"$&	c #041007",
"%&	c #053211",
"&&	c #0E862E",
"*&	c #3DA32A",
"=&	c #4BB12B",
"-&	c #49B02C",
";&	c #49B12C",
">&	c #48B02C",
",&	c #4CB12B",
"'&	c #2A962C",
")&	c #0A772A",
"!&	c #041107",
"~&	c #020904",
"{&	c #3B4128",
"]&	c #583319",
"^&	c #3A211A",
"/&	c #222214",
"(&	c #00250B",
"_&	c #112F0D",
":&	c #14320D",
"<&	c #12300C",
"[&	c #15330D",
"}&	c #0A2B0C",
"|&	c #04240C",
"1&	c #2F1E17",
"2&	c #422518",
"3&	c #5B361B",
"4&	c #2A482D",
"5&	c #376E47",
"6&	c #010402",
"7&	c #422613",
"8&	c #7E4824",
"9&	c #593223",
"0&	c #381D16",
"a&	c #0A0405",
"b&	c #050503",
"c&	c #112A18",
"d&	c #22492E",
"e&	c #234A2E",
"f&	c #20442A",
"g&	c #080905",
"h&	c #110406",
"i&	c #49281E",
"j&	c #623722",
"k&	c #7E4924",
"l&	c #1B0F08",
"m&	c #275133",
"n&	c #498D5C",
"o&	c #442613",
"p&	c #844B26",
"q&	c #7D4722",
"r&	c #6A3D23",
"s&	c #503227",
"t&	c #120B08",
"u&	c #2B1913",
"v&	c #593527",
"w&	c #764423",
"x&	c #7C4723",
"y&	c #7E4A25",
"z&	c #1C1008",
"A&	c #265033",
"B&	c #4D9562",
"C&	c #407E52",
"D&	c #345436",
"E&	c #321D0E",
"F&	c #322112",
"G&	c #2A170E",
"H&	c #1F140F",
"I&	c #366A45",
"J&	c #4D9662",
"K&	c #2F5537",
"L&	c #21120E",
"M&	c #302012",
"N&	c #311C0E",
"O&	c #321C0E",
"P&	c #376944",
"Q&	c #386F48",
"R&	c #132E1B",
"S&	c #102918",
"T&	c #122B19",
"U&	c #488D5C",
"V&	c #3A734A",
"W&	c #478C5B",
"X&	c #4E9663",
"                                                                                                ",
"                                                                                                ",
"                                                                                                ",
"                                                                                                ",
"                                                                                                ",
"                                        . +           . .                                       ",
"                                                                                                ",
"                                      @ # $ % & & & * = - ;                                     ",
"                                  >   , ' ) ! ~ { ] ^ / ( _   >                                 ",
"                                  : < [ } | 1 2 3 2 4 5 6 7 8   9                               ",
"                              9 0 a b c d e f g h i j k l m n @ o 9                             ",
"                            >   p q r s ] ~ ~ ~ ~ ~ t ~ u v w x a   .                           ",
"                            y z A B C D E F E G H H F H I J K L M ,                             ",
"                        9   N ' O P Q R S T U U V W S T V X Y Z m `   9                         ",
"                        9    ...+.@.#.$.%.&.*.=.-.;.>.,.'.).!.~.{.].      ^.                    ",
"                          /.(._.:.<.[.}.|.1.2.3.4.5.|.6.7.8.9.0.a.b., c.  9                     ",
"                      9   d.e.f.g.h.i.j.|.k.l.|.m.n.o.|.p.q.r.s.t.u.v.w.  >                     ",
"                  x.y.z.A.B.C.D.E.F.G.H.I.J.K.L.M.N.O.P.Q.R.S.T.U.V.W.X.Y.Z.`.   +        ^.  .+",
"                  ++@+#+$+%+&+*+=+-+;+>+,+'+)+!+~+{+]+^+/+(+_+:+<+[+}+|+1+2+3+  4+        ^.  5+",
"                  6+7+8+9+0+a+b+c+|.d+e+|.f+g+h+i+j+k+l+m+n+o+|.p+q+r+s+t+u+v+  w+            x+",
"                   +y+z+A+B+C+D+E+F+G+H+|.I+J+K+L+M+N+O+P+Q+R+S+T+U+V+W+X+Y+Z+                `+",
"                  .    @.@+@@@#@$@%@&@*@=@-@;@>@,@'@)@!@~@{@]@^@/@(@_@:@<@[@                  . ",
"                      }@  |@1@2@3@4@5@6@7@8@9@0@a@b@c@d@e@f@g@h@i@j@k@l@  m@                    ",
"                          n@o@p@q@r@s@t@u@v@w@x@y@z@A@B@C@D@E@F@G@H@I@J@  9                     ",
"                      9   K@L@p@M@N@O@P@Q@R@S@T@U@V@)@W@X@Y@Z@`@ #.#+#w.  .                     ",
"                      9   @###$#%#&#*#=#-#;#>#,#'#)#!#~#{#]#^#/#(#_#:#<#  .                     ",
"                          [#}#|#1#2#3#4#5#6#7#8#9#0#a#b#c#d#e#f#g#h#K@i#  9                     ",
"                        9   j#k#' l#m#n#o#p#q#r#s#t#u#v#w#x#y#z#A#B#                            ",
"                            o C#D#E#F#G#H#I#J#K#K#L#M#N#O#P#Q#R#S#T#>                           ",
"                            o @ U#V#W#X#Y#Z#`# $.$+$@$#$$$%$&$*$=$_ >                           ",
"                        >   j#R#-$;$>$,$'$)$!$~${$]$^$/$($_$:$<$[$}$  9 9                       ",
"                          |$1$2$3$4$5$6$7$8$9$0$a$b$c$d$e$f$g$h$i$j$k$a   9                     ",
"                      l$m$n$o$p$q$r$s$t$u$v$w$x$x$y$z$A$B$C$D$E$F$G$H$I$: >                     ",
"                  .   - J$K$L$M$N$O$P$Q$R$S$T$U$U$V$W$X$Y$Z$`$ %.%+%@%#%$%:                   > ",
"                  .   %%' &%*%=%-%;%>%,%'%)%!%~%{%]%^%/%(%_%:%<%[%}%|%1%2%3%                  > ",
"                  .   - ' 4%5%6%7%C$8%9%0%a%b%|.|.c%d%e%f%g%h%i%j%k%l%m%n%w+                  > ",
"                      o o%p%q%r%s%t%u%v%w%x%y%z%z%A%B%C%D%E%F%G%H%I%J%K%y >                     ",
"                          L%M%N%O%P%Q%R%S%T%U%V%W%X%U%Y%Z%`% &' .&+&M%@&  9                     ",
"                        9   >   p #&$&%&&&*&=&-&;&>&,&'&)&!&' ~&a   9   9                       ",
"                        9   o%n {&]&^&/&(&_&:&<&<&<&[&}&|&1&2&3&4&5&                            ",
"                        9   j#6&7&8&9&0&a&b&c&d&e&f&x g&h&i&j&k&l&m&                            ",
"                        9   n&' o&p&q&r&s&t&B#     .' u&v&w&x&y&z&A&                            ",
"                            B&C&D&E&F&G&H&I&-     J&C&K&L&M&N&O&P&- ^.                          ",
"                            >   Q&' R&S&T&U&  .   >   V&' R&S&c&W&  9                           ",
"                              . ; X&o X&X&: 9       . ; m$o X&X&: 9                             ",
"                                                                                                ",
"                                                                                                ",
"                                                                                                "};
