/* XPM */
static char * tree3_xpm[] = {
"48 48 502 2",
"  	c #509B66",
". 	c #4E9763",
"+ 	c #2D6238",
"@ 	c #24521B",
"# 	c #25531C",
"$ 	c #1C4918",
"% 	c #458958",
"& 	c #4B9260",
"* 	c #498F5E",
"= 	c #488D5C",
"- 	c #4F9A65",
"; 	c #3A764B",
"> 	c #39724A",
", 	c #397349",
"' 	c #4D9663",
") 	c #30693C",
"! 	c #3D822F",
"~ 	c #53A03B",
"{ 	c #54A23C",
"] 	c #4B9637",
"^ 	c #3B782A",
"/ 	c #2A622F",
"( 	c #39744B",
"_ 	c #275F24",
": 	c #3B772A",
"< 	c #3A7548",
"[ 	c #336B42",
"} 	c #337529",
"| 	c #4C9336",
"1 	c #397C2C",
"2 	c #275A2E",
"3 	c #529F3A",
"4 	c #4D9838",
"5 	c #3A7D2D",
"6 	c #4C9737",
"7 	c #53A13B",
"8 	c #4A9135",
"9 	c #24522F",
"0 	c #265430",
"a 	c #275733",
"b 	c #3D7B4F",
"c 	c #2C6C26",
"d 	c #519E3A",
"e 	c #509C39",
"f 	c #428B33",
"g 	c #529E3A",
"h 	c #458E34",
"i 	c #519D3A",
"j 	c #356D26",
"k 	c #3E8530",
"l 	c #2A5E33",
"m 	c #3F7F52",
"n 	c #39744A",
"o 	c #2B5F39",
"p 	c #20591E",
"q 	c #4E9A39",
"r 	c #4F9A39",
"s 	c #54A13B",
"t 	c #529F3B",
"u 	c #2E7027",
"v 	c #3B774D",
"w 	c #407F52",
"x 	c #2D6A29",
"y 	c #336E27",
"z 	c #4C9436",
"A 	c #408932",
"B 	c #1C531C",
"C 	c #1B4823",
"D 	c #4B925F",
"E 	c #4A905E",
"F 	c #275E20",
"G 	c #4E9A38",
"H 	c #468F34",
"I 	c #539F3B",
"J 	c #347028",
"K 	c #3A782A",
"L 	c #438556",
"M 	c #377146",
"N 	c #3F822F",
"O 	c #499436",
"P 	c #448E34",
"Q 	c #164117",
"R 	c #316740",
"S 	c #2F7128",
"T 	c #377E2D",
"U 	c #3C8430",
"V 	c #306E27",
"W 	c #3C822F",
"X 	c #2F6D27",
"Y 	c #3B822F",
"Z 	c #35782B",
"` 	c #4D9662",
" .	c #275A30",
"..	c #337A2B",
"+.	c #448D33",
"@.	c #2A6323",
"#.	c #19501B",
"$.	c #2A6A25",
"%.	c #3F8731",
"&.	c #265532",
"*.	c #3D832F",
"=.	c #3B802E",
"-.	c #2A632C",
";.	c #468A5A",
">.	c #458A32",
",.	c #4E9938",
"'.	c #4E9838",
").	c #3E7F2E",
"!.	c #468B32",
"~.	c #3A754B",
"{.	c #31752A",
"].	c #174B19",
"^.	c #3B7C2C",
"/.	c #478B5B",
"(.	c #256322",
"_.	c #266423",
":.	c #164C1A",
"<.	c #276624",
"[.	c #3F7E51",
"}.	c #16461C",
"|.	c #1B511C",
"1.	c #246122",
"2.	c #4D9938",
"3.	c #408831",
"4.	c #265531",
"5.	c #498E5D",
"6.	c #0F3D13",
"7.	c #4A9336",
"8.	c #266523",
"9.	c #2E7128",
"0.	c #438C33",
"a.	c #2E6F27",
"b.	c #346C44",
"c.	c #4F9965",
"d.	c #367044",
"e.	c #37792B",
"f.	c #509D3A",
"g.	c #225E20",
"h.	c #39802E",
"i.	c #408731",
"j.	c #184617",
"k.	c #488E5C",
"l.	c #164315",
"m.	c #469034",
"n.	c #438B32",
"o.	c #307429",
"p.	c #438631",
"q.	c #235B1F",
"r.	c #488E5D",
"s.	c #144014",
"t.	c #418831",
"u.	c #34782B",
"v.	c #3D8530",
"w.	c #276122",
"x.	c #316C26",
"y.	c #194D1A",
"z.	c #296022",
"A.	c #33782B",
"B.	c #347A2C",
"C.	c #28602A",
"D.	c #4A915F",
"E.	c #346C43",
"F.	c #194F1A",
"G.	c #489336",
"H.	c #499336",
"I.	c #38762A",
"J.	c #265D20",
"K.	c #4F9938",
"L.	c #458F34",
"M.	c #2F6925",
"N.	c #1D571E",
"O.	c #357C2C",
"P.	c #35762A",
"Q.	c #55A33C",
"R.	c #489235",
"S.	c #3B764C",
"T.	c #498F5D",
"U.	c #0C3812",
"V.	c #1E561D",
"W.	c #327128",
"X.	c #3A7A2B",
"Y.	c #23591F",
"Z.	c #3A812E",
"`.	c #519C3A",
" +	c #3A7F2E",
".+	c #225C20",
"++	c #4A9536",
"@+	c #347A2B",
"#+	c #3A754A",
"$+	c #114216",
"%+	c #40832F",
"&+	c #307329",
"*+	c #32782B",
"=+	c #3D8430",
"-+	c #367D2D",
";+	c #347B2C",
">+	c #21561D",
",+	c #4C9562",
"'+	c #295C36",
")+	c #124416",
"!+	c #39812E",
"~+	c #1B541D",
"{+	c #2E7028",
"]+	c #4F9B39",
"^+	c #418932",
"/+	c #3B7C2D",
"(+	c #2F7228",
"_+	c #0D3D14",
":+	c #2D6825",
"<+	c #256122",
"[+	c #23591E",
"}+	c #428932",
"|+	c #235E21",
"1+	c #3A812F",
"2+	c #387F2E",
"3+	c #296222",
"4+	c #2E7228",
"5+	c #104417",
"6+	c #0A310F",
"7+	c #225A1F",
"8+	c #4C9637",
"9+	c #154C1A",
"0+	c #124617",
"a+	c #428B32",
"b+	c #3B832F",
"c+	c #4C9536",
"d+	c #2A6523",
"e+	c #37762A",
"f+	c #4D9737",
"g+	c #337A2C",
"h+	c #1A521C",
"i+	c #114517",
"j+	c #194B19",
"k+	c #428A32",
"l+	c #1E571E",
"m+	c #40822F",
"n+	c #54A13C",
"o+	c #24591F",
"p+	c #347C2C",
"q+	c #1D561D",
"r+	c #0A310E",
"s+	c #356E44",
"t+	c #184C1A",
"u+	c #2B6B26",
"v+	c #194E1A",
"w+	c #235A1F",
"x+	c #35792B",
"y+	c #3F8630",
"z+	c #4C9738",
"A+	c #215C20",
"B+	c #245D20",
"C+	c #428254",
"D+	c #255330",
"E+	c #104416",
"F+	c #205A1F",
"G+	c #2A6925",
"H+	c #296925",
"I+	c #296824",
"J+	c #3E8630",
"K+	c #3F8831",
"L+	c #4B9336",
"M+	c #33792B",
"N+	c #438731",
"O+	c #2A6B26",
"P+	c #225D20",
"Q+	c #194F1B",
"R+	c #194722",
"S+	c #3F7D50",
"T+	c #0C3711",
"U+	c #062D0D",
"V+	c #357228",
"W+	c #4C9838",
"X+	c #4A9537",
"Y+	c #3C812E",
"Z+	c #154B19",
"`+	c #3A822F",
" @	c #1F551D",
".@	c #387F2D",
"+@	c #215B1F",
"@@	c #1F591F",
"#@	c #256222",
"$@	c #1D551D",
"%@	c #2F7229",
"&@	c #0E4216",
"*@	c #1A4823",
"=@	c #478C5B",
"-@	c #438455",
";@	c #0C3611",
">@	c #286222",
",@	c #37752A",
"'@	c #3A802E",
")@	c #357B2C",
"!@	c #296825",
"~@	c #0B3811",
"{@	c #104216",
"]@	c #0D3B13",
"^@	c #123A19",
"/@	c #1A4723",
"(@	c #114417",
"_@	c #134517",
":@	c #32772B",
"<@	c #307529",
"[@	c #2D6F27",
"}@	c #0B3510",
"|@	c #0F3F14",
"1@	c #124718",
"2@	c #0D3812",
"3@	c #1B4A25",
"4@	c #0B3611",
"5@	c #266323",
"6@	c #184E1B",
"7@	c #092E0D",
"8@	c #0D3C13",
"9@	c #2C6D27",
"0@	c #154A19",
"a@	c #276523",
"b@	c #1B521C",
"c@	c #104316",
"d@	c #0F4115",
"e@	c #082A0C",
"f@	c #092F0E",
"g@	c #0D3A12",
"h@	c #4D9562",
"i@	c #0C3811",
"j@	c #082B0C",
"k@	c #1B531C",
"l@	c #114416",
"m@	c #0B2F0E",
"n@	c #092C0D",
"o@	c #0A2D10",
"p@	c #0C3211",
"q@	c #245430",
"r@	c #418153",
"s@	c #1C4527",
"t@	c #193F24",
"u@	c #0E280C",
"v@	c #15290E",
"w@	c #182A0F",
"x@	c #1C2C11",
"y@	c #0C3B13",
"z@	c #0E4115",
"A@	c #143311",
"B@	c #172A0F",
"C@	c #1A2A10",
"D@	c #2F1F16",
"E@	c #325A3F",
"F@	c #3A704E",
"G@	c #194024",
"H@	c #306042",
"I@	c #3B7250",
"J@	c #45865B",
"K@	c #509A66",
"L@	c #47895D",
"M@	c #3F7A55",
"N@	c #36533A",
"O@	c #503624",
"P@	c #37241A",
"Q@	c #452E20",
"R@	c #4A3522",
"S@	c #2C2A16",
"T@	c #242613",
"U@	c #39301B",
"V@	c #36281A",
"W@	c #342319",
"X@	c #342219",
"Y@	c #3F2A1D",
"Z@	c #36241A",
"`@	c #372419",
" #	c #354530",
".#	c #3A6F4E",
"+#	c #3C7352",
"@#	c #3C7351",
"##	c #3B7251",
"$#	c #3B7150",
"%#	c #407C55",
"&#	c #2E4B35",
"*#	c #6A4C32",
"=#	c #63452F",
"-#	c #4D3424",
";#	c #442E20",
">#	c #3F2A1E",
",#	c #6A4A32",
"'#	c #664730",
")#	c #37251A",
"!#	c #3D291D",
"~#	c #4F3625",
"{#	c #38261B",
"]#	c #4C3424",
"^#	c #4E3523",
"/#	c #386B4B",
"(#	c #407C56",
"_#	c #2A3E2B",
":#	c #332117",
"<#	c #6A4B33",
"[#	c #5A3E2A",
"}#	c #452F20",
"|#	c #654730",
"1#	c #755338",
"2#	c #5F422C",
"3#	c #3E2A1D",
"4#	c #5E412C",
"5#	c #654630",
"6#	c #3B281C",
"7#	c #362B1E",
"8#	c #417D56",
"9#	c #478A5D",
"0#	c #345E42",
"a#	c #291D14",
"b#	c #684A32",
"c#	c #442D1F",
"d#	c #563C28",
"e#	c #725137",
"f#	c #64462F",
"g#	c #573B28",
"h#	c #62442E",
"i#	c #5D402C",
"j#	c #765439",
"k#	c #543927",
"l#	c #332218",
"m#	c #553B28",
"n#	c #5B402B",
"o#	c #2A2D20",
"p#	c #376748",
"q#	c #488A5D",
"r#	c #2E4C35",
"s#	c #715036",
"t#	c #503625",
"u#	c #301F16",
"v#	c #745237",
"w#	c #735237",
"x#	c #765338",
"y#	c #543A27",
"z#	c #4C3423",
"A#	c #5F422D",
"B#	c #2F583D",
"C#	c #735137",
"D#	c #4B3323",
"E#	c #3B261A",
"F#	c #6D4D34",
"G#	c #6C4C33",
"H#	c #664830",
"I#	c #432E20",
"J#	c #725036",
"K#	c #4D3423",
"L#	c #291A13",
"M#	c #30583E",
"N#	c #293C2A",
"O#	c #63452E",
"P#	c #4E3524",
"Q#	c #2F1E15",
"R#	c #573C28",
"S#	c #765438",
"T#	c #745238",
"U#	c #523927",
"V#	c #2E1E15",
"W#	c #6E4E35",
"X#	c #3A2619",
"Y#	c #43563C",
"Z#	c #40583E",
"`#	c #366648",
" $	c #488B5D",
".$	c #3F6A4A",
"+$	c #406A4A",
"@$	c #3C694A",
"#$	c #32281B",
"$$	c #533827",
"%$	c #25150F",
"&$	c #694A32",
"*$	c #6F4F35",
"=$	c #363E2B",
"-$	c #3B7351",
";$	c #4D9563",
">$	c #32291D",
",$	c #704F35",
"'$	c #533826",
")$	c #483121",
"!$	c #2C3122",
"~$	c #273625",
"{$	c #343424",
"]$	c #2B2319",
"^$	c #407B55",
"/$	c #498D5F",
"($	c #34563C",
"_$	c #465A3F",
":$	c #455A3F",
"<$	c #475B3F",
"[$	c #42583E",
"}$	c #3A6A4B",
"|$	c #386A4B",
"1$	c #3F573D",
"2$	c #3D7552",
"3$	c #4E9663",
"4$	c #3E7753",
"5$	c #448359",
"6$	c #4D9462",
"7$	c #3E7853",
"8$	c #427F57",
"9$	c #417E57",
"0$	c #4C9261",
"a$	c #3C7452",
"b$	c #4C9462",
"c$	c #4F9865",
"                                      . + @ # $ % &   * = = -                                   ",
"                              ; > , ' ) ! ~ { ] ^ / ( _ : : <                                   ",
"                            [ } | 1 2 ! 3 ~ ~ ~ ~ 4 5 6 ~ 7 8 9 0 a -                           ",
"                          b c d ~ ~ e f g ~ ~ ~ ~ ~ h i ~ ~ i j ~ k l '                         ",
"                      m n o p g ~ ~ ~ q r ~ ~ ~ ~ ~ ~ ~ ~ ~ ~ s ~ t u v                         ",
"                    w x c y z A ~ ~ ~ ~ ~ ~ ~ ~ ~ ~ ~ ~ ~ ~ ~ ~ ~ i B C D                       ",
"                  E F G e H ~ I ~ ~ ~ ~ ~ ~ ~ ~ ~ ~ ~ ~ ~ ~ ~ ~ s J t K L                       ",
"                  M N s ~ ~ ~ ~ ~ ~ ~ ~ ~ ~ s s 7 ~ s ~ O ~ ~ ~ ~ s ~ P Q                       ",
"                R S T q ~ ~ ~ ~ ~ ~ ~ ~ ~ d U V W 6 X Y e ~ ~ ~ ~ ~ ~ i Z R                     ",
"              `  ...T q ~ ~ ~ ~ ~ ~ ~ ~ ~ ~ ~ +.@.#.$.U ~ ~ ~ ~ ~ ~ ~ 7 %.&.                    ",
"              n u f +.7 ~ 7 ~ ~ ~ ~ ~ ~ ~ ~ ~ ~ ~ *.=.t ~ ~ ~ ~ ~ ~ ~ ~ t -.;.                  ",
"              n >.t H ,.'.).7 ~ ~ ~ ~ ~ ~ ~ ~ ~ ~ g d ~ ~ ~ ~ ~ ~ ~ ~ ~ ~ !.n                   ",
"              ~.S ,.+.{.].^.7 ~ ~ ~ ~ ~ ~ ~ ~ ~ ~ ~ ~ ~ ~ ~ ~ ~ ~ ~ ~ ~ ~ !.n                   ",
"              /.-.(._.:.<.U e ~ ~ ~ ~ ~ ~ ~ ~ ~ ~ ~ ~ ~ ~ ~ ~ ~ ~ ~ ~ ~ t -.;.                  ",
"              [.}.|.1.$.2.+.6 ~ ~ ~ ~ ~ ~ ~ ~ ~ ~ ~ ~ ~ ~ ~ ~ ~ ~ ~ ~ 7 3.4.                    ",
"            5.6.7.q 8.9.G ~ 0.3 ~ ~ ~ ~ ~ ~ ~ ~ ~ ~ ~ ~ ~ ~ ~ ~ ~ ~ ~ ~ 3 a.b.c.                ",
"            d.e.f.0.8.g.h.7 ~ ~ ~ ~ ~ ~ ~ ~ ~ ~ ~ ~ ~ ~ ~ ~ ~ ~ ~ ~ O s ~ i.j.k.                ",
"            l.m.~ q n.B h.7 ~ ~ ~ 0.i ~ ~ ~ ~ ~ ~ ~ ~ ~ ~ ~ ~ ~ 7 %.o.p.I 2.q.r.                ",
"            s.t.t ~ ~ U u.r ~ ~ g v.w.z 4 ~ ~ ~ r e ~ ~ ~ ~ ~ ~ s x.y.z.A.B.C.D.                ",
"            E.F.t.G.{ H.I.J.K.3 h L.h M.N.L.s ] O.%.7 ~ ~ ~ ~ ~ ~ t P.Q.R.a.S.                  ",
"            T.U.#.V.W.G 3 X.Y.Z.0.7 ~ `. +.+U T T e ~ ~ ~ ~ ~ ~ ~ ~ ++H.3 @+C.D.                ",
"              #+$+%.%+&+2.n.*+%.~ ~ ~ ~ ~ =+-+6 I ~ ~ ~ ~ ~ ~ ~ ~ ~ 2.;+O...>+5.                ",
"            ,+'+)+~ q !+_.~+{+~ G ]+~ ~ ~ H ^+s ~ ~ ~ ~ ~ ~ ~ ]+,.~ /+;+;+(+_+E.                ",
"            r.U.c :+U <+[+}+|+1+2+6 ~ ~ ~ 2+T 6 ~ ~ ~ t ~ ~ I t /+3+{.;+;+4+5+6+                ",
"            r.7+2.8+9+0+i ~ t U a+~ ]+7 +.d 8+b+e ^+c+d+7 f.3.q e+f+,.T g+h+i+6+                ",
"            k.j+t.k+l+5+m+q e i b+H T ] n+~ ~ s ~ f+o+A.L.h d ^+g++.s h p+*+q+r+                ",
"            c.s+t+#.5+u+v+w+x+Y B.;+;+2+b+d ~ ~ ~ 7 y+g+U i ~ z+g+;+b+2+A+B.B+C+                ",
"                D+E+F+6 f+G+-+;+H+I+J+~ K+L+~ ~ ~ ~ L.O.M+*+] N+O+g+P+o.Q+0+R+D.                ",
"                S+T+U+V+L.W+X+T Y+Z+i ]+`+ @s ~ t ++{ .@+@@@#@$@O.p+%@&@i+*@=@                  ",
"                  -@;@E+>@s ,@4 g '@`+h.;+B h ~ v.-+b+)@!@~@{@l+p+F+#.]@^@E                     ",
"                  D /@(@i+_@{+2.]+'@y.o.l+:@;+O.<@p+g.[@H+}@|@{@1@i+i+2@T.                      ",
"                    = 3@T+4@g.5@_.6@7@8@5+M+O.9@0@a@b@c@d@6+e@f@g@(@c@'+h@                      ",
"                      D.L i@(@5+(@T+j@;@i+b@k@0@}@(@(@l@m@n@o@j@n@p@q@'                         ",
"                          r@s@t@u@v@w@x@y@d@z@A@B@B@B@C@D@E@F@G@H@I@I@J@K@                      ",
"                        c.L@M@N@O@P@Q@R@S@T@U@V@W@X@Y@Z@`@ #.#+#@#####$#J@                      ",
"                      K@%#@#&#*#=#Z@-#;#>#,#'#-#)#!#~#{#]#^#/###########@#-                     ",
"                    c.(###+#_#=#:#<#[#}#|#1#1#2#3#4#5#~#6#=#7#/#@#########8#                    ",
"                    9#$###@#0#a#b#,#=#c#d#e#f#g#h#i#j#k#l#m#n#o#p#########(#                    ",
"                    q#I@##@#r#*#1#s#t#u#2#v#|#|#w#s#x#y#W@z#s#A#B#########(#                    ",
"                    q#I@##@#_#C#1#s#D#E#F#1#G#H#I#J#s#e#K#L#t#h#M#########(#                    ",
"                    q#I@##+#N#O#|#P#Q#R#S#T#G#U#V#~#f#w#W#X#Y#Z#`#########%#                    ",
"                     $######/#.$+$@$#$e#1#[#$$I#%$!#&$1#1#*$=$-$########@#;$                    ",
"                      8###########@#>$,$*$'$)$!$~${$P#G#*$A#]$##########^$                      ",
"                      /$@###########($_$:$<$[$}$+#|$1$_$:$<$($########$#'                       ",
"                        2$##########@#-$-$-$-$######-$-$-$-$@#########J@-                       ",
"                        3$4$########################################5$                          ",
"                          6$7$$#$#I@##############I@$#$#######$#8$L@                            ",
"                            ' 6$;$8###############9$;$0$I@##a$b$c$                              "};
